<svg width="18" height="18" viewBox="0 0 18 18" fill="none" xmlns="http://www.w3.org/2000/svg">
<path d="M8.99994 1.50031C10.989 1.50031 12.8966 2.29045 14.303 3.69692C15.7095 5.10338 16.4996 7.01096 16.4996 9.00001C16.4996 10.989 15.7095 12.8966 14.303 14.3031C12.8966 15.7096 10.989 16.4997 8.99994 16.4997C7.0109 16.4997 5.10332 15.7096 3.69686 14.3031C2.29039 12.8966 1.50024 10.989 1.50024 9.00001C1.50024 7.01096 2.29039 5.10338 3.69686 3.69692C5.10332 2.29045 7.0109 1.50031 8.99994 1.50031V1.50031ZM12.1202 4.48651C11.9738 4.48478 11.83 4.52562 11.7064 4.60407C11.5827 4.68252 11.4845 4.79519 11.4236 4.9284L9.60294 4.54051C9.57781 4.53453 9.55172 4.53384 9.52631 4.53849C9.5009 4.54314 9.47673 4.55302 9.45534 4.5675C9.41484 4.5945 9.37434 4.63411 9.37434 4.68721L8.81364 7.299C7.64814 7.326 6.60324 7.67431 5.84004 8.22331C5.63394 8.02754 5.36109 7.9175 5.07684 7.91551C4.47384 7.91551 3.97884 8.41051 3.97884 9.01351C3.97884 9.45541 4.24614 9.84331 4.62144 10.0044C4.60794 10.1124 4.59444 10.2186 4.59444 10.3392C4.59444 12.0267 6.55014 13.3929 8.97384 13.3929C11.3984 13.3929 13.3532 12.0267 13.3532 10.3392C13.3532 10.2321 13.3397 10.125 13.3262 10.0044C13.5272 9.92391 13.6995 9.78538 13.8214 9.60648C13.9432 9.42759 14.009 9.21644 14.0102 9.00001C14.0102 8.39701 13.5143 7.902 12.9122 7.902C12.617 7.902 12.3488 8.0226 12.1481 8.2098C11.3984 7.6743 10.3661 7.32601 9.21504 7.28551L9.71004 4.94191L11.3444 5.2902C11.3496 5.44282 11.3995 5.59055 11.4881 5.71497C11.5766 5.83938 11.6998 5.93497 11.8423 5.98982C11.9848 6.04466 12.1403 6.05634 12.2894 6.02338C12.4385 5.99042 12.5746 5.91428 12.6808 5.80448C12.7869 5.69467 12.8583 5.55605 12.8862 5.40591C12.914 5.25577 12.897 5.10075 12.8374 4.96019C12.7777 4.81964 12.6779 4.69976 12.5506 4.61552C12.4232 4.53129 12.2738 4.48641 12.1211 4.48651H12.1202ZM10.835 11.5578C10.9421 11.6388 10.9421 11.7585 10.862 11.8395C10.3616 12.339 9.44184 12.4074 9.07104 12.4146H8.99994C8.70564 12.4146 7.67424 12.375 7.13874 11.8386C7.1198 11.8205 7.10472 11.7987 7.09442 11.7745C7.08411 11.7504 7.0788 11.7244 7.0788 11.6982C7.0788 11.672 7.08411 11.646 7.09442 11.6219C7.10472 11.5977 7.1198 11.576 7.13874 11.5578C7.21884 11.4777 7.33944 11.4777 7.41954 11.5578C7.75434 11.8926 8.47794 12.0132 8.98644 12.0132C9.49584 12.0132 10.2194 11.8926 10.5533 11.5578C10.6343 11.4777 10.754 11.4777 10.835 11.5578V11.5578ZM7.28544 9.00001C7.38973 8.99652 7.49365 9.01405 7.59101 9.05157C7.68838 9.08908 7.7772 9.14581 7.85218 9.21837C7.92716 9.29092 7.98678 9.37783 8.02747 9.47391C8.06816 9.56999 8.0891 9.67328 8.08904 9.77762C8.08898 9.88196 8.06792 9.98523 8.02712 10.0813C7.98631 10.1773 7.9266 10.2641 7.85153 10.3366C7.77646 10.4091 7.68758 10.4657 7.59017 10.5031C7.49276 10.5405 7.38882 10.5579 7.28454 10.5543C7.08301 10.5473 6.89207 10.4623 6.75201 10.3173C6.61195 10.1722 6.53372 9.97837 6.53384 9.77672C6.53396 9.57507 6.61241 9.38135 6.75263 9.23643C6.89286 9.09152 7.0839 9.00675 7.28544 9.00001V9.00001ZM10.7279 9.00001C10.8322 8.99658 10.9361 9.01418 11.0335 9.05175C11.1308 9.08932 11.2196 9.1461 11.2945 9.2187C11.3695 9.2913 11.429 9.37824 11.4697 9.47434C11.5103 9.57045 11.5312 9.67375 11.5311 9.77809C11.531 9.88243 11.5098 9.98568 11.469 10.0817C11.4281 10.1777 11.3684 10.2645 11.2933 10.3369C11.2181 10.4094 11.1292 10.4659 11.0318 10.5033C10.9344 10.5406 10.8304 10.558 10.7261 10.5543C10.5246 10.5472 10.3337 10.4621 10.1937 10.317C10.0538 10.1718 9.97565 9.97794 9.97588 9.77629C9.97611 9.57463 10.0547 9.38095 10.195 9.23612C10.3353 9.09129 10.5264 9.00663 10.7279 9.00001V9.00001Z" fill="#9495A9"/>
</svg>
