<svg width="18" height="18" viewBox="0 0 18 18" fill="none" xmlns="http://www.w3.org/2000/svg">
<path fill-rule="evenodd" clip-rule="evenodd" d="M8.99999 1.50041C7.21924 1.50093 5.49676 2.135 4.14069 3.28919C2.78462 4.44337 1.88342 6.04238 1.59832 7.80017C1.31323 9.55795 1.66282 11.3598 2.58457 12.8835C3.50632 14.4071 4.94009 15.5531 6.62939 16.1164C7.00469 16.1857 7.14149 15.9544 7.14149 15.7555C7.14149 15.5773 7.13429 15.1057 7.13069 14.4802C5.04449 14.9329 4.60439 13.474 4.60439 13.474C4.26329 12.6073 3.77189 12.3769 3.77189 12.3769C3.09059 11.9116 3.82319 11.9215 3.82319 11.9215C4.57649 11.9746 4.97159 12.6946 4.97159 12.6946C5.64119 13.8403 6.72749 13.5091 7.15499 13.3174C7.22339 12.8332 7.41599 12.502 7.63109 12.3148C5.96609 12.1258 4.21469 11.4823 4.21469 8.60771C4.21469 7.78871 4.50719 7.11911 4.98689 6.59531C4.90949 6.40631 4.65209 5.64311 5.06069 4.61081C5.06069 4.61081 5.68979 4.40921 7.12259 5.37941C7.73453 5.21291 8.36581 5.12818 8.99999 5.12741C9.63417 5.12826 10.2654 5.213 10.8774 5.37941C12.3093 4.40921 12.9384 4.61081 12.9384 4.61081C13.3479 5.64311 13.0905 6.40631 13.0131 6.59531C13.4937 7.11911 13.7844 7.78961 13.7844 8.60771C13.7844 11.4895 12.0294 12.1231 10.3599 12.3085C10.629 12.5407 10.8684 12.9979 10.8684 13.6981C10.8684 14.7007 10.8594 15.5089 10.8594 15.7555C10.8594 15.9562 10.9944 16.1893 11.3751 16.1155C13.0648 15.552 14.4989 14.4056 15.4206 12.8814C16.3423 11.3572 16.6915 9.55474 16.4057 7.7966C16.1199 6.03846 15.2178 4.43942 13.8607 3.28566C12.5037 2.1319 10.7803 1.49875 8.99909 1.49951" fill="#9495A9"/>
</svg>
