<svg width="122" height="42" viewBox="0 0 122 42" fill="none" xmlns="http://www.w3.org/2000/svg">
<rect x="1" y="1" width="120" height="40" rx="12" fill="#090D14" stroke="#E0E0FF" stroke-opacity="0.24"/>
<path fill-rule="evenodd" clip-rule="evenodd" d="M75.6792 30.0762C74.0445 30.0762 72.8482 29.2676 72.7105 28.0362L70.8081 28.0361C70.9282 30.2822 72.7876 31.7031 75.5415 31.7031C78.4849 31.7031 80.3355 30.248 80.3355 27.9248C80.3355 26.1084 79.2769 25.0849 76.729 24.4824L75.3608 24.1465C73.7603 23.751 73.106 23.2344 73.106 22.3565C73.106 21.2549 74.1304 20.4981 75.6274 20.4981C77.1245 20.4981 78.1489 21.2461 78.2612 22.4854H80.1372C80.0767 20.3428 78.2778 18.8711 75.6538 18.8711C73.0025 18.8711 71.1353 20.3428 71.1353 22.4854C71.1353 24.2158 72.1939 25.2822 74.4742 25.833L76.0835 26.2207C77.6929 26.6162 78.3726 27.1934 78.3726 28.1572C78.3726 29.2676 77.2456 30.0762 75.6792 30.0762ZM43.3023 28.1397H38.5689L37.4322 31.4962H35.4273L39.9107 19.0782H41.9937L46.4771 31.4962H44.438L43.3023 28.1397ZM39.0591 26.5909H42.8111L40.9615 21.1436H40.9097L39.0591 26.5909ZM56.1597 26.9698C56.1597 29.7833 54.6538 31.5909 52.3814 31.5909C51.2068 31.6523 50.1003 31.0371 49.5327 30.0069H49.4897V34.4913H47.6313V22.4424H49.4302V23.9483H49.4644C50.0572 22.9245 51.1648 22.3096 52.3472 22.3477C54.645 22.3477 56.1597 24.1641 56.1597 26.9698ZM54.2495 26.9698C54.2495 25.1368 53.3023 23.9317 51.857 23.9317C50.437 23.9317 49.482 25.1622 49.482 26.9698C49.482 28.794 50.437 30.0157 51.857 30.0157C53.3023 30.0157 54.2495 28.8194 54.2495 26.9698ZM62.3462 31.5909C64.6187 31.5909 66.1245 29.7833 66.1245 26.9698C66.1245 24.1641 64.6099 22.3477 62.312 22.3477C61.1296 22.3096 60.022 22.9245 59.4292 23.9483H59.395V22.4424H57.5962V34.4913H59.4546V30.0069H59.4976C60.0652 31.0371 61.1716 31.6523 62.3462 31.5909ZM61.8218 23.9317C63.2671 23.9317 64.2144 25.1368 64.2144 26.9698C64.2144 28.8194 63.2671 30.0157 61.8218 30.0157C60.4019 30.0157 59.4468 28.794 59.4468 26.9698C59.4468 25.1622 60.4019 23.9317 61.8218 23.9317ZM84.3462 20.2999V22.4424H86.0679V23.9141H84.3462V28.9053C84.3462 29.6807 84.6909 30.042 85.4478 30.042C85.6522 30.0385 85.8562 30.0241 86.0591 29.999V31.4619C85.7188 31.5255 85.373 31.5543 85.0269 31.5479C83.1939 31.5479 82.479 30.8594 82.479 29.1035V23.9141H81.1626V22.4424H82.479V20.2999H84.3462ZM87.065 26.9698C87.065 24.1212 88.7427 22.3311 91.359 22.3311C93.984 22.3311 95.6539 24.1211 95.6539 26.9698C95.6539 29.8262 93.9927 31.6085 91.359 31.6085C88.7261 31.6085 87.065 29.8262 87.065 26.9698ZM93.7603 26.9698C93.7603 25.0157 92.8648 23.8624 91.3589 23.8624C89.8531 23.8624 88.9586 25.0245 88.9586 26.9698C88.9586 28.9317 89.8531 30.0762 91.3589 30.0762C92.8648 30.0762 93.7603 28.9317 93.7603 26.9698ZM97.1861 22.4424H98.9585V23.9834H99.0015C99.2487 22.9914 100.158 22.3087 101.179 22.3477C101.393 22.3469 101.607 22.3702 101.816 22.417V24.1553C101.546 24.0727 101.264 24.0348 100.981 24.043C100.435 24.0208 99.9059 24.2386 99.5336 24.6391C99.1613 25.0395 98.9826 25.5827 99.0445 26.126V31.4961H97.1861L97.1861 22.4424ZM110.384 28.837C110.134 30.4805 108.534 31.6084 106.486 31.6084C103.852 31.6084 102.217 29.8438 102.217 27.0127C102.217 24.1729 103.861 22.3311 106.408 22.3311C108.913 22.3311 110.488 24.0518 110.488 26.7969V27.4336H104.093V27.5459C104.034 28.22 104.266 28.8872 104.732 29.3778C105.198 29.8685 105.853 30.1353 106.529 30.1104C107.431 30.1949 108.281 29.677 108.62 28.837L110.384 28.837ZM104.102 26.1348L108.628 26.1348C108.662 25.5292 108.442 24.9369 108.02 24.5007C107.599 24.0645 107.014 23.8239 106.408 23.837C105.796 23.8333 105.209 24.074 104.776 24.5055C104.343 24.937 104.101 25.5236 104.102 26.1348Z" fill="white"/>
<path fill-rule="evenodd" clip-rule="evenodd" d="M96.7046 9.43701H97.5855V11.9185H97.6558C97.8978 11.3872 98.4469 11.0646 99.0288 11.1118C99.4701 11.0878 99.8991 11.2618 100.199 11.5864C100.499 11.9111 100.638 12.3525 100.58 12.7905V15.6978H99.69V13.0098C99.69 12.2905 99.355 11.9263 98.7271 11.9263C98.4179 11.9009 98.1133 12.0133 97.8948 12.2334C97.6762 12.4535 97.5658 12.7589 97.5933 13.0679V15.6977H96.7047L96.7046 9.43701ZM94.5152 10.0737V11.2153H95.4908V11.9639H94.5152V14.2793C94.5152 14.751 94.7095 14.9575 95.1519 14.9575C95.2651 14.9572 95.3783 14.9503 95.4908 14.937V15.6773C95.3312 15.7058 95.1695 15.721 95.0074 15.7227C94.0191 15.7227 93.6255 15.375 93.6255 14.5068V11.9638H92.9107V11.2153H93.6255V10.0737H94.5152ZM105.761 14.4819C105.512 15.3313 104.69 15.8801 103.81 15.7847C103.21 15.8005 102.633 15.5516 102.232 15.1041C101.831 14.6565 101.648 14.0555 101.73 13.4605C101.65 12.8638 101.833 12.2618 102.231 11.8105C102.63 11.3591 103.204 11.1028 103.806 11.1079C105.059 11.1079 105.815 11.9639 105.815 13.3779V13.688H102.635V13.7378C102.607 14.072 102.721 14.4025 102.95 14.6481C103.178 14.8936 103.499 15.0315 103.834 15.0278C104.269 15.08 104.692 14.8643 104.906 14.4819L105.761 14.4819ZM102.635 13.0308H104.91C104.932 12.7252 104.825 12.4242 104.614 12.2021C104.403 11.9799 104.108 11.8572 103.801 11.8643C103.491 11.8604 103.192 11.982 102.972 12.2017C102.753 12.4213 102.631 12.7203 102.635 13.0308ZM38.8262 9.73101C39.6151 9.6744 40.3879 9.97456 40.9318 10.5489C41.4756 11.1232 41.7333 11.9112 41.6338 12.6959C41.6338 14.6021 40.6035 15.6979 38.8262 15.6979H36.6709V9.73101H38.8262ZM37.5977 14.854H38.7227C39.2865 14.8877 39.8355 14.6656 40.2172 14.2493C40.599 13.833 40.7728 13.2668 40.6904 12.708C40.7668 12.1515 40.5905 11.5901 40.2097 11.1771C39.8289 10.7642 39.2835 10.5431 38.7227 10.5742H37.5977V14.854ZM85.6695 11.1948H86.5249V11.9102H86.5913C86.8223 11.3835 87.3619 11.0613 87.9351 11.1079C88.3789 11.0745 88.8138 11.2448 89.117 11.5706C89.4202 11.8964 89.5588 12.3424 89.4937 12.7827V15.6977H88.605V13.0059C88.605 12.2822 88.2906 11.9224 87.6333 11.9224C87.3323 11.9084 87.0401 12.0265 86.8335 12.2458C86.6268 12.4652 86.5262 12.7638 86.5581 13.0635V15.6978H85.6695V11.1948ZM81.2287 11.4286C80.5398 11.8561 80.1528 12.6372 80.23 13.4444C80.1513 14.2523 80.538 15.035 81.2275 15.4634C81.9171 15.8918 82.79 15.8918 83.4796 15.4634C84.1691 15.035 84.5558 14.2523 84.4771 13.4444C84.5543 12.6372 84.1673 11.8561 83.4783 11.4286C82.7894 11.0011 81.9177 11.0011 81.2287 11.4286ZM82.355 11.8975C83.1245 11.8975 83.563 12.4683 83.563 13.4444C83.563 14.4243 83.1245 14.9946 82.355 14.9947C81.5826 14.9947 81.148 14.4283 81.148 13.4444C81.148 12.4683 81.5826 11.8975 82.355 11.8975ZM42.6807 13.4444C42.6035 12.6372 42.9905 11.8561 43.6794 11.4286C44.3684 11.0011 45.2401 11.0011 45.929 11.4286C46.618 11.8561 47.005 12.6372 46.9278 13.4444C47.0064 14.2523 46.6198 15.035 45.9302 15.4634C45.2407 15.8918 44.3678 15.8918 43.6782 15.4634C42.9887 15.035 42.602 14.2523 42.6807 13.4444ZM46.0137 13.4444C46.0137 12.4683 45.5752 11.8975 44.8057 11.8975C44.0332 11.8975 43.5987 12.4683 43.5987 13.4444C43.5987 14.4283 44.0333 14.9947 44.8057 14.9947C45.5752 14.9946 46.0137 14.4243 46.0137 13.4444H46.0137ZM52.5733 15.6978H51.6514L50.7207 12.3814H50.6504L49.7237 15.6978H48.8106L47.5694 11.1948H48.4707L49.2774 14.6308H49.3438L50.2696 11.1948H51.1221L52.0479 14.6308H52.1182L52.9209 11.1948H53.8096L52.5733 15.6978ZM55.709 11.1948H54.8535L54.8535 15.6978H55.7422V13.0635C55.7103 12.7638 55.8109 12.4652 56.0176 12.2458C56.2242 12.0265 56.5164 11.9084 56.8174 11.9224C57.4746 11.9224 57.7891 12.2822 57.7891 13.0059V15.6977H58.6778V12.7827C58.7429 12.3424 58.6043 11.8964 58.3011 11.5706C57.9979 11.2448 57.563 11.0745 57.1192 11.1079C56.546 11.0613 56.0064 11.3835 55.7754 11.9102H55.709V11.1948ZM60.0938 9.43701H60.9824V15.6978H60.0938V9.43701ZM62.2178 13.4444C62.1406 12.6372 62.5277 11.8561 63.2167 11.4285C63.9057 11.001 64.7775 11.001 65.4665 11.4285C66.1554 11.8561 66.5425 12.6372 66.4654 13.4444C66.5439 14.2524 66.1572 15.035 65.4676 15.4634C64.7781 15.8918 63.9051 15.8918 63.2155 15.4634C62.526 15.035 62.1392 14.2524 62.2178 13.4444ZM65.5508 13.4444C65.5508 12.4683 65.1123 11.8975 64.3428 11.8975C63.5703 11.8975 63.1358 12.4683 63.1358 13.4444C63.1358 14.4283 63.5704 14.9947 64.3428 14.9947C65.1123 14.9946 65.5508 14.4243 65.5508 13.4444ZM69.0757 13.0801C68.0044 13.1465 67.4009 13.6138 67.4009 14.4243C67.4024 14.8087 67.5664 15.1744 67.8524 15.4312C68.1384 15.6879 68.5196 15.8117 68.9019 15.772C69.4472 15.7972 69.9639 15.5271 70.2544 15.065H70.3247V15.6978H71.1802V12.6211C71.1802 11.6699 70.5435 11.1079 69.4146 11.1079C68.3931 11.1079 67.6656 11.604 67.5747 12.3775H68.4351C68.5337 12.0591 68.8775 11.877 69.3736 11.877C69.981 11.877 70.2954 12.1455 70.2954 12.6211V13.0098L69.0757 13.0801ZM70.2954 13.6631V14.0396C70.276 14.3266 70.1409 14.5934 69.9211 14.7789C69.7013 14.9645 69.4156 15.0529 69.1295 15.0239C68.646 15.0239 68.2945 14.7881 68.2945 14.3828C68.2945 13.9859 68.5757 13.7749 69.1958 13.7334L70.2954 13.6631ZM72.3482 13.4444C72.3482 12.0215 73.0796 11.1201 74.2173 11.1201C74.7918 11.0937 75.3298 11.4015 75.5982 11.9101H75.6646V9.43701H76.5532V15.6978H75.7017V14.9863H75.6314C75.3428 15.4907 74.7981 15.7934 74.2173 15.772C73.0718 15.772 72.3482 14.8706 72.3482 13.4444ZM73.2662 13.4444C73.2662 14.3994 73.7164 14.9741 74.4693 14.9741C75.2183 14.9741 75.6812 14.3911 75.6812 13.4483C75.6812 12.5098 75.2134 11.9185 74.4693 11.9185C73.7212 11.9185 73.2661 12.4971 73.2661 13.4444H73.2662Z" fill="white"/>
<path fill-rule="evenodd" clip-rule="evenodd" d="M24.1518 9.72021C24.2486 10.9844 23.8488 12.2366 23.0372 13.2108C22.2499 14.1901 21.0569 14.7542 19.8005 14.7412C19.7206 13.5134 20.132 12.3041 20.9442 11.3798C21.7667 10.443 22.9119 9.85044 24.1518 9.72021ZM28.1254 17.1486C26.6801 18.0371 25.7907 19.6042 25.7689 21.3006C25.7709 23.22 26.9204 24.9521 28.6881 25.6998C28.3481 26.8042 27.8357 27.8479 27.1697 28.7923C26.2753 30.1302 25.3376 31.4373 23.8492 31.4614C23.1413 31.4778 22.6635 31.2742 22.1656 31.0621C21.6462 30.8409 21.1051 30.6103 20.2582 30.6103C19.36 30.6103 18.7946 30.8483 18.2493 31.0778C17.778 31.2761 17.3218 31.4682 16.6788 31.4948C15.2613 31.5473 14.1781 30.0669 13.2512 28.7415C11.3985 26.0349 9.95595 21.1139 11.89 17.7654C12.7981 16.1335 14.4962 15.0979 16.3629 15.0376C17.1668 15.021 17.9382 15.3309 18.6145 15.6025C19.1318 15.8103 19.5934 15.9957 19.9714 15.9957C20.3037 15.9957 20.7524 15.8176 21.2753 15.6101C22.0991 15.2831 23.1071 14.8831 24.1343 14.9909C25.7304 15.0408 27.2095 15.8405 28.1254 17.1486Z" fill="white"/>
</svg>
