<svg width="135" height="42" viewBox="0 0 135 42" fill="none" xmlns="http://www.w3.org/2000/svg">
<rect x="1" y="1" width="133" height="40" rx="10" fill="#090D14"/>
<path fill-rule="evenodd" clip-rule="evenodd" d="M27.1973 8.33325H16.128C10.9093 8.33325 9 10.2426 9 15.4613V26.5386C9 31.7573 10.9093 33.6666 16.128 33.6666H27.1973C32.416 33.6666 34.328 31.7573 34.328 26.5386V15.4613C34.3333 10.2426 32.424 8.33325 27.1973 8.33325Z" fill="#C8102E"/>
<path d="M14.016 20.9998H14.688V24.3144H14.016V22.9678H12.4987V24.3144H11.8267V20.9998H12.4987V22.3331H14.016V20.9998ZM17.8027 22.8958C17.8027 23.4291 17.536 23.7224 17.0507 23.7224C16.5653 23.7224 16.2933 23.4291 16.2933 22.8664V20.9998H15.6213V22.8931C15.6213 23.8238 16.1387 24.3571 17.04 24.3571C17.9413 24.3571 18.4747 23.8238 18.4747 22.8638V20.9998H17.8027V22.8958ZM25.568 23.2771L24.816 20.9998H24.264L23.5173 23.2798L22.784 20.9998H22.0693L23.224 24.3144H23.7813L24.5307 22.1384L25.2827 24.3144H25.8453L27 20.9998H26.3013L25.568 23.2771ZM28.2027 22.8851H29.4267V22.2851H28.2027V21.6078H29.9787V20.9998H27.5413V24.3064H30.0427V23.7091H28.2027V22.8851ZM30.8427 24.3064H31.5067V20.9998H30.8427V24.3064ZM19.8027 23.6211L19.5013 24.3091H18.816L20.264 20.9998H20.856L22.3093 24.3091H21.616L21.3307 23.6238L19.8027 23.6211ZM20.0533 23.0238H21.064L20.5573 21.8398L20.0533 23.0238Z" fill="white"/>
<path d="M21.6667 16.7836C20.5487 16.7829 19.4768 16.3385 18.6863 15.548C17.8958 14.7575 17.4514 13.6856 17.4507 12.5676H18.0454C18.0454 13.5281 18.4269 14.4492 19.106 15.1283C19.7851 15.8074 20.7062 16.189 21.6667 16.189C22.6271 16.189 23.5482 15.8074 24.2274 15.1283C24.9065 14.4492 25.288 13.5281 25.288 12.5676H25.8827C25.882 13.6856 25.4376 14.7575 24.6471 15.548C23.8566 16.3385 22.7846 16.7829 21.6667 16.7836Z" fill="white"/>
<path d="M50.8162 27.5106H46.1255L44.9869 30.6413H42.9255L47.5122 18.9453H49.4589L54.1495 30.6413H51.9922L50.8162 27.5106ZM46.7229 25.9106H50.2162L48.9655 22.5613C48.7949 22.1 48.6242 21.588 48.4589 21.028C48.3069 21.524 48.1415 22.028 47.9655 22.5453L46.7229 25.9106Z" fill="white"/>
<path d="M54.9788 24.0625C54.9788 23.4172 54.9575 22.706 54.9148 21.9292H56.7815C56.8516 22.2948 56.8997 22.6644 56.9255 23.0358C57.2521 22.6444 57.6595 22.3283 58.1198 22.1092C58.5801 21.8901 59.0824 21.7732 59.5921 21.7665C60.1898 21.757 60.7768 21.9261 61.2779 22.2519C61.779 22.5778 62.1716 23.0457 62.4055 23.5958C62.7335 24.3521 62.8893 25.1719 62.8615 25.9958C62.8818 26.8942 62.6995 27.7856 62.3281 28.6038C62.0175 29.2829 61.5103 29.8533 60.8721 30.2412C60.2155 30.6206 59.4677 30.8133 58.7095 30.7985C58.1128 30.7981 57.5205 30.6972 56.9575 30.4998V34.1078L54.9628 34.2785L54.9788 24.0625ZM60.2215 28.5078C60.6268 27.9745 60.8321 27.1745 60.8321 26.1078C60.8321 25.1354 60.6632 24.4243 60.3255 23.9745C60.1728 23.7655 59.9718 23.5966 59.7396 23.4823C59.5073 23.3681 59.2509 23.3118 58.9921 23.3185C58.6195 23.3135 58.2519 23.4054 57.9255 23.5852C57.5787 23.7816 57.2632 24.0288 56.9895 24.3185V28.9852C57.2105 29.0893 57.4433 29.1664 57.6828 29.2145C57.9404 29.2702 58.2032 29.2988 58.4668 29.2998C58.8016 29.3199 59.1362 29.2583 59.4418 29.1203C59.7475 28.9823 60.0151 28.7721 60.2215 28.5078Z" fill="white"/>
<path d="M64.075 24.0625C64.075 23.4172 64.0537 22.706 64.011 21.9292H65.8776C65.95 22.2946 65.999 22.6642 66.0243 23.0358C66.8012 22.1896 67.6901 21.7665 68.691 21.7665C69.2887 21.757 69.8756 21.9261 70.3767 22.2519C70.8779 22.5778 71.2705 23.0457 71.5043 23.5958C71.8324 24.3521 71.9881 25.1719 71.9603 25.9958C71.9848 26.8932 71.8071 27.7845 71.4403 28.6038C71.1289 29.2833 70.6208 29.8537 69.9816 30.2412C69.3252 30.621 68.5772 30.8137 67.819 30.7985C67.2223 30.7981 66.63 30.6972 66.067 30.4998V34.1078L64.0723 34.2785L64.075 24.0625ZM69.3256 28.5078C69.731 27.962 69.9336 27.162 69.9336 26.1078C69.9336 25.1354 69.7656 24.4243 69.4296 23.9745C69.277 23.7655 69.076 23.5966 68.8438 23.4823C68.6115 23.3681 68.355 23.3118 68.0963 23.3185C67.7237 23.314 67.3563 23.4059 67.0296 23.5852C66.6829 23.7816 66.3674 24.0288 66.0936 24.3185V28.9852C66.3149 29.0886 66.5477 29.1655 66.787 29.2145C67.0446 29.2702 67.3074 29.2988 67.571 29.2998C67.9057 29.3194 68.2401 29.2576 68.5457 29.1197C68.8513 28.9817 69.1189 28.7718 69.3256 28.5078Z" fill="white"/>
<path d="M75.627 30.0889C74.7748 29.6216 74.0827 28.909 73.6403 28.0436C73.1568 27.0657 72.9188 25.9848 72.947 24.8943C72.9124 23.7275 73.1885 22.5726 73.747 21.5476C74.2513 20.6581 75.0087 19.9388 75.923 19.4809C76.8838 19.0115 77.9417 18.7749 79.011 18.7903C79.6594 18.7874 80.3059 18.8627 80.9363 19.0143C81.526 19.1531 82.0984 19.357 82.643 19.6223L82.1257 21.1556C81.1824 20.6798 80.1446 20.421 79.0883 20.3983C78.3427 20.3858 77.607 20.5698 76.955 20.9316C76.3363 21.2867 75.8391 21.8202 75.5283 22.4623C75.1709 23.2238 74.9973 24.0587 75.0217 24.8996C75.0084 25.6572 75.1405 26.4104 75.411 27.1183C75.6565 27.7448 76.0884 28.2809 76.6483 28.6543C77.2862 29.0534 78.0298 29.2504 78.7817 29.2196C79.1713 29.2186 79.5601 29.1856 79.9443 29.1209C80.3161 29.0618 80.6813 28.9672 81.035 28.8383V26.4596H78.331V24.9103H82.9737V29.8409C82.3001 30.1548 81.5947 30.3953 80.8697 30.5583C80.1507 30.7239 79.4154 30.808 78.6777 30.8089C77.6159 30.8344 76.5653 30.5865 75.627 30.0889Z" fill="white"/>
<path d="M90.0588 30.6414C89.9834 30.2606 89.937 29.8746 89.9201 29.4867C89.587 29.8743 89.18 30.1916 88.7228 30.42C88.2067 30.6815 87.6346 30.8133 87.0561 30.804C86.5828 30.81 86.1142 30.7088 85.6855 30.508C85.2777 30.3168 84.9367 30.0074 84.7068 29.62C84.452 29.181 84.3255 28.6794 84.3415 28.172C84.3265 27.7872 84.4014 27.4042 84.5602 27.0534C84.7189 26.7025 84.9572 26.3935 85.2561 26.1507C85.8641 25.6458 86.8784 25.3943 88.2988 25.396C88.8279 25.3958 89.3564 25.4332 89.8801 25.508V25.3374C89.8801 24.5694 89.7166 24.0271 89.3895 23.7107C88.9984 23.3742 88.4909 23.2047 87.9761 23.2387C87.5151 23.2443 87.0565 23.307 86.6108 23.4254C86.1693 23.5318 85.7389 23.68 85.3255 23.868L85.0108 22.4174C85.463 22.2244 85.9327 22.0752 86.4135 21.972C87.0181 21.8353 87.6362 21.7673 88.2561 21.7694C88.9129 21.7514 89.5664 21.8685 90.1761 22.1134C90.7124 22.3505 91.1491 22.7673 91.4108 23.292C91.7381 23.9946 91.8909 24.7658 91.8561 25.54V29.0067C91.8561 29.3623 91.8775 29.908 91.9202 30.644L90.0588 30.6414ZM88.8641 29.0414C89.2485 28.8627 89.5938 28.6099 89.8801 28.2974V26.6974C89.4375 26.645 88.9925 26.6157 88.5468 26.6094C87.7237 26.6094 87.1539 26.7427 86.8375 27.0094C86.6831 27.1398 86.5604 27.3036 86.4786 27.4884C86.3969 27.6731 86.3582 27.8741 86.3655 28.076C86.351 28.2505 86.3743 28.4261 86.4336 28.5908C86.493 28.7555 86.5871 28.9055 86.7095 29.0307C86.9694 29.2499 87.3033 29.3615 87.6428 29.3427C88.0675 29.3363 88.4852 29.2332 88.8641 29.0414Z" fill="white"/>
<path d="M93.3972 28.5505V18.2572L95.3812 18.0972V28.1958C95.353 28.4762 95.4197 28.7579 95.5706 28.9958C95.6468 29.0778 95.7407 29.1413 95.8451 29.1815C95.9495 29.2217 96.0617 29.2375 96.1732 29.2278C96.3541 29.22 96.5333 29.1895 96.7066 29.1372L96.9412 30.5665C96.7179 30.6508 96.4865 30.7116 96.2506 30.7478C95.996 30.792 95.7382 30.8152 95.4799 30.8172C94.0914 30.8083 93.3972 30.0527 93.3972 28.5505Z" fill="white"/>
<path d="M98.3601 28.5505V18.2572L100.347 18.0972V28.1958C100.319 28.4762 100.385 28.7579 100.536 28.9958C100.612 29.0778 100.706 29.1413 100.811 29.1815C100.915 29.2217 101.027 29.2375 101.139 29.2278C101.32 29.22 101.499 29.1895 101.672 29.1372L101.904 30.5665C101.682 30.6508 101.451 30.7116 101.216 30.7478C100.961 30.7921 100.702 30.8153 100.443 30.8172C99.0561 30.8083 98.3619 30.0527 98.3601 28.5505Z" fill="white"/>
<path d="M110.064 26.5398H104.366C104.456 28.3656 105.326 29.2785 106.974 29.2785C107.396 29.2763 107.818 29.2262 108.23 29.1292C108.65 29.0313 109.061 28.8975 109.459 28.7292L109.896 30.0945C108.869 30.5784 107.746 30.821 106.611 30.8038C105.798 30.8273 104.992 30.6438 104.27 30.2705C103.643 29.9322 103.141 29.4036 102.835 28.7612C102.496 28.0169 102.332 27.2052 102.355 26.3878C102.333 25.5314 102.507 24.6812 102.864 23.9025C103.169 23.2417 103.661 22.6852 104.28 22.3025C104.915 21.9289 105.64 21.7387 106.376 21.7532C107.107 21.7274 107.827 21.9296 108.438 22.3318C108.988 22.7139 109.414 23.2488 109.664 23.8705C109.939 24.5477 110.075 25.2731 110.064 26.0038V26.5398ZM108.12 25.2732C108.124 24.707 107.936 24.1562 107.587 23.7105C107.43 23.5352 107.237 23.3966 107.021 23.3044C106.805 23.2122 106.571 23.1688 106.336 23.1772C106.1 23.1723 105.865 23.2173 105.647 23.3092C105.43 23.4011 105.234 23.5378 105.072 23.7105C104.696 24.1486 104.466 24.6929 104.414 25.2678L108.12 25.2732Z" fill="white"/>
<path d="M111.573 24.1187C111.573 23.6414 111.549 22.9107 111.507 21.932H113.373C113.405 22.1747 113.435 22.4654 113.467 22.7987C113.499 23.132 113.515 23.4094 113.525 23.62C113.726 23.2802 113.954 22.9573 114.208 22.6547C114.428 22.3961 114.694 22.1801 114.992 22.0174C115.305 21.8482 115.657 21.7628 116.013 21.7694C116.283 21.7628 116.553 21.796 116.813 21.868L116.563 23.596C116.25 23.5056 115.922 23.4827 115.601 23.5286C115.279 23.5746 114.97 23.6885 114.696 23.8627C114.255 24.1908 113.87 24.5889 113.557 25.0414V30.6414H111.573V24.1187Z" fill="white"/>
<path d="M117.923 34.2063C117.679 34.167 117.44 34.109 117.205 34.033L117.568 32.5796C117.736 32.6248 117.906 32.6613 118.077 32.689C118.269 32.7231 118.464 32.7409 118.659 32.7423C119.548 32.7423 120.209 32.1743 120.643 31.0383L120.773 30.7156L117.56 21.9316H119.693L121.325 26.841C121.534 27.4725 121.703 28.1164 121.832 28.769C121.984 28.1396 122.16 27.5103 122.365 26.881L123.992 21.9316H126L122.8 30.7556C122.558 31.4664 122.23 32.1445 121.821 32.7743C121.51 33.2501 121.085 33.6405 120.584 33.9103C120.047 34.1723 119.455 34.3004 118.859 34.2836C118.545 34.2848 118.232 34.259 117.923 34.2063Z" fill="white"/>
<path d="M42.9255 7.80908H46.4722L46.3735 8.66775H43.9602V10.3291H46.2349V11.1291H43.9602V12.9691H46.5015L46.4135 13.8411H42.9255V7.80908Z" fill="white"/>
<path d="M48.9226 10.7637L47.056 7.80908H48.24L49.5093 9.97975L50.8426 7.80908H51.992L50.1253 10.7264L52.144 13.8411H50.944L49.5066 11.4677L48.0426 13.8411H46.8933L48.9226 10.7637Z" fill="white"/>
<path d="M52.9094 7.80908H54.5361C55.2988 7.80908 55.8836 7.96464 56.2908 8.27575C56.4933 8.43508 56.6543 8.64097 56.7601 8.87589C56.866 9.11082 56.9136 9.36783 56.8988 9.62508C56.91 9.99253 56.8176 10.3557 56.6321 10.6731C56.451 10.9714 56.1869 11.2105 55.8721 11.3611C55.5223 11.5265 55.1389 11.6086 54.7521 11.6011C54.4835 11.5973 54.2158 11.5696 53.9521 11.5184V13.8411H52.9094V7.80908ZM55.5228 10.5024C55.6365 10.3932 55.7252 10.2605 55.7828 10.1137C55.8403 9.96681 55.8653 9.80921 55.8561 9.65175C55.8697 9.50085 55.8459 9.34892 55.7868 9.2094C55.7277 9.06987 55.6352 8.94704 55.5174 8.85175C55.2173 8.66897 54.8681 8.58329 54.5174 8.60642H53.9521V10.7397C54.1502 10.7754 54.3508 10.796 54.5521 10.8011C54.9017 10.8273 55.2484 10.7207 55.5228 10.5024Z" fill="white"/>
<path d="M57.928 7.80908H58.968V12.9504H61.464L61.376 13.8411H57.928V7.80908Z" fill="white"/>
<path d="M63.048 13.5449C62.6109 13.299 62.2578 12.9273 62.0346 12.4782C61.7921 11.9805 61.6723 11.4318 61.6853 10.8782C61.6725 10.2998 61.8007 9.72685 62.0586 9.20891C62.2951 8.74203 62.6668 8.35729 63.1253 8.10491C63.6385 7.8361 64.2129 7.70559 64.792 7.72624C65.3394 7.71155 65.8811 7.84122 66.3626 8.10224C66.797 8.34904 67.1473 8.72066 67.368 9.16891C67.6058 9.6615 67.7237 10.2034 67.712 10.7502C67.7264 11.3352 67.5973 11.9147 67.336 12.4382C67.0972 12.9035 66.7261 13.2876 66.2693 13.5422C65.765 13.8105 65.2003 13.9446 64.6293 13.9316C64.0772 13.9455 63.5313 13.8121 63.048 13.5449ZM65.7466 12.8062C66.0406 12.6114 66.2692 12.3327 66.4026 12.0062C66.5522 11.6325 66.6257 11.2327 66.6186 10.8302C66.6253 10.4351 66.5603 10.0421 66.4266 9.67024C66.307 9.34814 66.0933 9.06943 65.8133 8.87024C65.4886 8.67155 65.1153 8.56641 64.7346 8.56641C64.3539 8.56641 63.9807 8.67155 63.656 8.87024C63.3612 9.07477 63.1315 9.35993 62.9946 9.69157C62.8429 10.0499 62.7675 10.4359 62.7733 10.8249C62.7669 11.2257 62.8375 11.6241 62.9813 11.9982C63.109 12.3406 63.3426 12.6333 63.6481 12.8337C63.9536 13.0342 64.3151 13.132 64.68 13.1129C65.0585 13.1222 65.4308 13.0152 65.7466 12.8062Z" fill="white"/>
<path d="M68.8723 7.80899H70.7603C71.3135 7.76984 71.864 7.9152 72.3257 8.22233C72.5028 8.3614 72.6438 8.54117 72.7366 8.74636C72.8295 8.95155 72.8715 9.17612 72.859 9.40099C72.8652 9.6934 72.7993 9.98283 72.667 10.2437C72.5513 10.4724 72.3897 10.6748 72.1923 10.8383C72.0159 10.9808 71.8178 11.0942 71.6056 11.1743L73.4723 13.841H72.259L70.6883 11.441H69.923V13.841H68.8723V7.80899ZM70.507 10.6623C70.7386 10.6674 70.9681 10.6171 71.1763 10.5157C71.3639 10.4256 71.522 10.2841 71.6323 10.1077C71.7424 9.91933 71.7986 9.70442 71.795 9.48633C71.8057 9.36045 71.785 9.23388 71.7348 9.11799C71.6845 9.00209 71.6062 8.90049 71.507 8.82233C71.257 8.66581 70.964 8.59209 70.6697 8.61166H69.915V10.673L70.507 10.6623Z" fill="white"/>
<path d="M74.2854 7.80908H77.8401L77.7387 8.66775H75.3387V10.3291H77.5921V11.1291H75.3174V12.9691H77.8587L77.7814 13.8411H74.2854V7.80908Z" fill="white"/>
<path d="M81.7068 7.80908H82.7468V13.8411H81.7068V7.80908Z" fill="white"/>
<path d="M85.5017 8.67842H83.635L83.7257 7.80908H88.419L88.323 8.67842H86.5443V13.8411H85.5017V8.67842Z" fill="white"/>
<path d="M92.9386 13.5453C92.5023 13.2992 92.1502 12.9275 91.928 12.4786C91.6832 11.9815 91.5624 11.4326 91.576 10.8786C91.5632 10.3002 91.6913 9.72724 91.9493 9.2093C92.1865 8.74291 92.558 8.35835 93.016 8.1053C93.5253 7.83517 94.0957 7.70107 94.672 7.71597C95.2259 7.70105 95.7737 7.83455 96.2586 8.10264C96.6937 8.34864 97.0441 8.72048 97.264 9.1693C97.5027 9.66167 97.6215 10.2036 97.6106 10.7506C97.6255 11.3359 97.4954 11.9158 97.232 12.4386C96.994 12.9045 96.6227 13.2888 96.1653 13.5426C95.6613 13.8116 95.0964 13.9457 94.5253 13.932C93.9714 13.9469 93.4236 13.8134 92.9386 13.5453ZM95.64 12.8066C95.9325 12.6109 96.16 12.3324 96.2933 12.0066C96.4429 11.6329 96.5164 11.2331 96.5093 10.8306C96.516 10.4355 96.4509 10.0425 96.3173 9.67064C96.1986 9.34873 95.9859 9.06998 95.7066 8.87064C95.3815 8.67171 95.0078 8.56645 94.6266 8.56645C94.2455 8.56645 93.8718 8.67171 93.5466 8.87064C93.2518 9.07517 93.0222 9.36032 92.8853 9.69197C92.7348 10.0506 92.6595 10.4364 92.664 10.8253C92.6575 11.2261 92.7282 11.6244 92.872 11.9986C92.9992 12.3276 93.221 12.6115 93.5093 12.8146C93.825 13.023 94.198 13.1274 94.576 13.1133C94.9535 13.121 95.3245 13.0141 95.64 12.8066Z" fill="white"/>
<path d="M98.7654 7.80908H99.96L102.944 12.4837C102.917 12.0384 102.907 11.6304 102.907 11.2544V7.80908H103.872V13.8411H102.715L99.6854 9.09175C99.7147 9.62508 99.7307 10.1077 99.7307 10.5264V13.8411H98.7654V7.80908Z" fill="white"/>
<rect x="1" y="1" width="133" height="40" rx="10" stroke="#E0E0FF" stroke-opacity="0.24"/>
</svg>
