<svg width="137" height="42" viewBox="0 0 137 42" fill="none" xmlns="http://www.w3.org/2000/svg">
<rect x="1" y="1" width="135" height="40" rx="12" fill="#090D14" stroke="#E0E0FF" stroke-opacity="0.24"/>
<path fill-rule="evenodd" clip-rule="evenodd" d="M107.936 31.0001H109.802V18.4991H107.936V31.0001ZM124.743 23.0021L122.604 28.4221H122.54L120.32 23.0021H118.31L121.639 30.5771L119.741 34.7911H121.688L126.818 23.0021H124.743ZM114.161 29.5801C113.549 29.5801 112.697 29.2751 112.697 28.5191C112.697 27.5541 113.759 27.1841 114.675 27.1841C115.496 27.1841 115.881 27.3611 116.38 27.6021C116.235 28.7601 115.238 29.5801 114.161 29.5801ZM114.386 22.7291C113.035 22.7291 111.636 23.3241 111.057 24.6431L112.713 25.3341C113.067 24.6431 113.726 24.4171 114.418 24.4171C115.383 24.4171 116.364 24.9961 116.38 26.0261V26.1541C116.042 25.9611 115.319 25.6721 114.434 25.6721C112.649 25.6721 110.831 26.6531 110.831 28.4861C110.831 30.1591 112.295 31.2371 113.935 31.2371C115.19 31.2371 115.881 30.6741 116.316 30.0141H116.38V30.9791H118.181V26.1871C118.181 23.9671 116.525 22.7291 114.386 22.7291ZM102.854 24.5241H100.2V20.2391H102.854C104.249 20.2391 105.041 21.3941 105.041 22.3811C105.041 23.3501 104.249 24.5241 102.854 24.5241ZM102.806 18.4991H98.335V31.0001H100.2V26.2641H102.806C104.874 26.2641 106.907 24.7661 106.907 22.3811C106.907 19.9961 104.874 18.4991 102.806 18.4991ZM78.425 29.5821C77.136 29.5821 76.057 28.5031 76.057 27.0211C76.057 25.5231 77.136 24.4271 78.425 24.4271C79.698 24.4271 80.696 25.5231 80.696 27.0211C80.696 28.5031 79.698 29.5821 78.425 29.5821ZM80.567 23.7021H80.503C80.084 23.2031 79.279 22.7521 78.264 22.7521C76.137 22.7521 74.188 24.6201 74.188 27.0211C74.188 29.4051 76.137 31.2581 78.264 31.2581C79.279 31.2581 80.084 30.8071 80.503 30.2911H80.567V30.9031C80.567 32.5311 79.698 33.4011 78.296 33.4011C77.152 33.4011 76.443 32.5791 76.153 31.8861L74.526 32.5631C74.993 33.6911 76.234 35.0761 78.296 35.0761C80.487 35.0761 82.34 33.7871 82.34 30.6461V23.0091H80.567V23.7021ZM83.629 31.0001H85.498V18.4981H83.629V31.0001ZM88.252 26.8761C88.204 25.2331 89.525 24.3951 90.475 24.3951C91.217 24.3951 91.845 24.7651 92.054 25.2971L88.252 26.8761ZM94.052 25.4581C93.698 24.5081 92.618 22.7521 90.411 22.7521C88.22 22.7521 86.4 24.4751 86.4 27.0051C86.4 29.3891 88.204 31.2581 90.62 31.2581C92.57 31.2581 93.698 30.0661 94.165 29.3731L92.715 28.4061C92.232 29.1151 91.571 29.5821 90.62 29.5821C89.67 29.5821 88.993 29.1471 88.558 28.2941L94.245 25.9421L94.052 25.4581ZM48.744 24.0571V25.8611H53.061C52.932 26.8761 52.594 27.6171 52.079 28.1331C51.45 28.7611 50.467 29.4531 48.744 29.4531C46.086 29.4531 44.007 27.3111 44.007 24.6531C44.007 21.9941 46.086 19.8521 48.744 19.8521C50.178 19.8521 51.225 20.4161 51.998 21.1411L53.271 19.8681C52.191 18.8371 50.758 18.0471 48.744 18.0471C45.103 18.0471 42.042 21.0121 42.042 24.6531C42.042 28.2941 45.103 31.2581 48.744 31.2581C50.709 31.2581 52.191 30.6141 53.351 29.4051C54.543 28.2131 54.914 26.5381 54.914 25.1841C54.914 24.7651 54.882 24.3791 54.817 24.0571H48.744ZM59.823 29.5821C58.534 29.5821 57.422 28.5191 57.422 27.0051C57.422 25.4741 58.534 24.4271 59.823 24.4271C61.111 24.4271 62.223 25.4741 62.223 27.0051C62.223 28.5191 61.111 29.5821 59.823 29.5821ZM59.823 22.7521C57.47 22.7521 55.553 24.5401 55.553 27.0051C55.553 29.4531 57.47 31.2581 59.823 31.2581C62.175 31.2581 64.092 29.4531 64.092 27.0051C64.092 24.5401 62.175 22.7521 59.823 22.7521ZM69.136 29.5821C67.847 29.5821 66.735 28.5191 66.735 27.0051C66.735 25.4741 67.847 24.4271 69.136 24.4271C70.425 24.4271 71.536 25.4741 71.536 27.0051C71.536 28.5191 70.425 29.5821 69.136 29.5821ZM69.136 22.7521C66.784 22.7521 64.867 24.5401 64.867 27.0051C64.867 29.4531 66.784 31.2581 69.136 31.2581C71.488 31.2581 73.405 29.4531 73.405 27.0051C73.405 24.5401 71.488 22.7521 69.136 22.7521Z" fill="white"/>
<path fill-rule="evenodd" clip-rule="evenodd" d="M47.5473 11.5111L47.648 11.5111C47.6451 11.5449 47.6416 11.5783 47.6376 11.6111H47.5365C47.5406 11.5783 47.5442 11.545 47.5473 11.5111ZM45.369 11.6111H47.5365C47.4801 12.0608 47.3243 12.4049 47.074 12.6561C46.644 13.0841 46.117 13.2961 45.469 13.2971C44.861 13.2961 44.345 13.0861 43.9 12.6591C43.459 12.2321 43.24 11.6881 43.239 11.0001C43.24 10.3121 43.459 9.76812 43.9 9.34112C44.345 8.91412 44.861 8.70412 45.469 8.70412C46.146 8.70512 46.656 8.92912 47.035 9.38012L47.105 9.46312L47.71 8.85812L47.775 8.79412L47.716 8.72312C47.47 8.43012 47.142 8.19812 46.74 8.02512C46.337 7.85312 45.912 7.76612 45.469 7.76612C44.58 7.76512 43.813 8.07712 43.191 8.69612C42.566 9.31312 42.251 10.0891 42.252 11.0001C42.251 11.9111 42.566 12.6871 43.191 13.3051C43.813 13.9231 44.58 14.2351 45.469 14.2341C46.395 14.2351 47.163 13.9271 47.746 13.3151C48.2626 12.7973 48.519 12.099 48.519 11.2431C48.519 11.0911 48.504 10.9351 48.475 10.7731L48.46 10.6911H45.369V11.6111ZM47.746 13.3151L47.744 13.3171L47.673 13.2461L47.746 13.3151ZM47.1825 9.24458L47.112 9.31512C47.0904 9.28942 47.0684 9.26443 47.046 9.24013L47.041 9.24512L47.112 9.31512L47.188 9.25112L47.1825 9.24458ZM53.128 7.90012V8.73712V8.83712H50.395V10.5401H52.859V11.4601H50.395V13.1631H53.128V14.1001H49.425V7.90012H53.128ZM56.379 8.83712V14.0001V14.1001H55.407V8.83712H53.731V7.90012H58.055V8.83712H56.379ZM61.809 14.1001H60.938H60.838V7.90012H61.809V14.1001ZM65.228 8.83712V14.0001V14.1001H64.257V8.83712H62.581V7.90012H66.904V8.83712H65.228ZM70.7792 12.7224L70.779 12.7221L70.85 12.6521L70.8505 12.6526L70.7792 12.7224ZM70.8505 12.6526L70.851 12.6521C70.426 12.2211 70.214 11.6771 70.213 11.0001C70.214 10.3231 70.426 9.77912 70.851 9.34812H70.85C71.279 8.91612 71.79 8.70512 72.409 8.70412C73.029 8.70512 73.541 8.91612 73.968 9.34812C74.393 9.78012 74.605 10.3231 74.606 11.0001C74.605 11.6771 74.393 12.2201 73.968 12.6521C73.541 13.0841 73.029 13.2961 72.409 13.2971C71.7902 13.2951 71.2794 13.0843 70.8505 12.6526ZM74.609 13.2251L74.681 13.2941C74.075 13.9201 73.309 14.2351 72.409 14.2341C71.509 14.2351 70.744 13.9201 70.138 13.2941C69.531 12.6721 69.225 11.8991 69.226 11.0001C69.225 10.1011 69.531 9.32912 70.138 8.70612C70.744 8.08112 71.509 7.76512 72.409 7.76612C73.304 7.76512 74.068 8.08212 74.677 8.71012C75.286 9.33512 75.594 10.1061 75.593 11.0001C75.594 11.8991 75.288 12.6721 74.681 13.2941L74.6095 13.2246L74.609 13.2251ZM80.3597 12.5546L80.3541 12.3576L80.4589 12.5254L80.4602 12.5681H80.43L80.43 12.6671L80.3597 12.5546ZM80.4624 12.6473L80.43 12.6671H80.463L80.463 12.667L80.4624 12.6473ZM77.3161 9.24761L77.3149 9.20612H77.346L77.346 9.10612L77.4153 9.21736L77.4212 9.41606L77.3161 9.24761ZM77.3126 9.12693L77.312 9.10612H77.346L77.3126 9.12693ZM77.4212 9.41606L77.446 10.2611V14.1001H76.575H76.475V7.90012H77.569L80.3541 12.3576L80.33 11.5131V7.90012H81.301V14.1001H80.341L77.4212 9.41606Z" fill="white"/>
<path fill-rule="evenodd" clip-rule="evenodd" d="M11.51 33.3901L11.435 33.3181C11.145 33.0101 10.973 32.5331 10.973 31.9131V32.0591V9.94308C10.973 9.94108 10.973 9.94008 10.973 9.93808C10.973 9.94008 10.973 9.94208 10.973 9.94308V10.0901C10.973 9.41908 11.173 8.91408 11.509 8.61108L23.898 21.0011L11.51 33.3901ZM10.973 9.93708C10.973 9.88208 10.974 9.82808 10.977 9.77508C10.974 9.82808 10.973 9.88208 10.973 9.93708Z" fill="url(#paint0_linear_3_1848)"/>
<path fill-rule="evenodd" clip-rule="evenodd" d="M28.028 25.2781L28.122 25.2251L33.015 22.4451C33.481 22.1801 33.792 21.8581 33.947 21.5181C33.792 21.8581 33.482 22.1801 33.015 22.4451L28.122 25.2251L28.028 25.2781ZM28.029 25.1321L23.898 21.0011L28.029 16.8701L33.015 19.7031C33.648 20.0631 34.004 20.5271 34.063 21.0001C34.063 21.0011 34.063 21.0011 34.063 21.0021C34.004 21.4751 33.648 21.9391 33.015 22.2991L28.029 25.1321Z" fill="url(#paint1_linear_3_1848)"/>
<path fill-rule="evenodd" clip-rule="evenodd" d="M12.393 33.8612C12.047 33.8612 11.745 33.7492 11.509 33.5362H11.51C11.745 33.7482 12.048 33.8612 12.394 33.8612C12.424 33.8612 12.454 33.8612 12.485 33.8592C12.454 33.8612 12.423 33.8612 12.393 33.8612ZM12.393 33.7152C12.047 33.7152 11.745 33.6022 11.51 33.3902L23.898 21.0012L28.029 25.1322L13.514 33.3792C13.112 33.6072 12.732 33.7152 12.393 33.7152Z" fill="url(#paint2_linear_3_1848)"/>
<path fill-rule="evenodd" clip-rule="evenodd" d="M23.898 21.0011L11.509 8.61111C11.744 8.39911 12.046 8.28711 12.392 8.28711C12.73 8.28711 13.111 8.39511 13.514 8.62311L28.029 16.8701L23.898 21.0011ZM28.122 16.7771L13.514 8.47711C13.112 8.24911 12.73 8.14111 12.392 8.14111C12.39 8.14111 12.389 8.14111 12.387 8.14111C12.389 8.14111 12.391 8.14111 12.393 8.14111C12.731 8.14111 13.112 8.24811 13.514 8.47711L28.122 16.7771Z" fill="url(#paint3_linear_3_1848)"/>
<mask id="mask0_3_1848" style="mask-type:alpha" maskUnits="userSpaceOnUse" x="11" y="8" width="18" height="14">
<path fill-rule="evenodd" clip-rule="evenodd" d="M23.898 21.0011L11.509 8.61111C11.744 8.39911 12.046 8.28711 12.392 8.28711C12.73 8.28711 13.111 8.39511 13.514 8.62311L28.029 16.8701L23.898 21.0011ZM28.122 16.7771L13.514 8.47711C13.112 8.24911 12.73 8.14111 12.392 8.14111C12.39 8.14111 12.389 8.14111 12.387 8.14111C12.389 8.14111 12.391 8.14111 12.393 8.14111C12.731 8.14111 13.112 8.24811 13.514 8.47711L28.122 16.7771Z" fill="white"/>
</mask>
<g mask="url(#mask0_3_1848)">
</g>
<defs>
<linearGradient id="paint0_linear_3_1848" x1="14.5375" y1="1.39612" x2="-2.60735" y2="12.59" gradientUnits="userSpaceOnUse">
<stop stop-color="#00C2FF"/>
<stop offset="1" stop-color="#00E3FF"/>
</linearGradient>
<linearGradient id="paint1_linear_3_1848" x1="23.898" y1="25.8559" x2="35.4599" y2="25.8559" gradientUnits="userSpaceOnUse">
<stop stop-color="#FFBB00"/>
<stop offset="1" stop-color="#F3D830"/>
</linearGradient>
<linearGradient id="paint2_linear_3_1848" x1="11.2182" y1="14.474" x2="-4.90183" y2="41.1833" gradientUnits="userSpaceOnUse">
<stop stop-color="#FF3944"/>
<stop offset="1" stop-color="#C31161"/>
</linearGradient>
<linearGradient id="paint3_linear_3_1848" x1="3.31873" y1="10.6471" x2="11.4741" y2="27.5736" gradientUnits="userSpaceOnUse">
<stop stop-color="#0CDD75"/>
<stop offset="1" stop-color="#00F076"/>
</linearGradient>
</defs>
</svg>
