<svg width="18" height="18" viewBox="0 0 18 18" fill="none" xmlns="http://www.w3.org/2000/svg">
<path fill-rule="evenodd" clip-rule="evenodd" d="M5 2C3.34315 2 2 3.34315 2 5V14C2 15.6569 3.34315 17 5 17H14C15.6569 17 17 15.6569 17 14V5C17 3.34315 15.6569 2 14 2H5ZM13.0329 10.625C13.2303 10.7455 13.4276 10.7054 13.625 10.5848H13.6645C13.9803 10.4241 14.1382 10.0223 14.1382 9.5C14.1382 6.96875 12.0066 4.87946 9.48026 4.87946C6.95395 4.87946 4.90132 6.96875 4.90132 9.5C4.90132 10.2634 5.05921 10.9866 5.45395 11.6696L8.09868 7.45089C8.41447 6.96875 8.73026 6.92857 8.9671 7.00893C9.28289 7.08929 9.48026 7.41071 9.48026 7.97321V10.2634L10.6645 8.375C10.8618 8.05357 11.375 7.25 12.0461 7.45089C12.4408 7.57143 12.6776 7.97321 12.6776 8.61607V9.82143C12.6776 10.2232 12.7961 10.5045 13.0329 10.625ZM9.48026 3.875C12.5987 3.875 15.125 6.36607 15.125 9.5C15.125 10.3438 14.8092 11.067 14.1776 11.4687C13.7039 11.7902 13.0329 11.8304 12.5197 11.5491C11.9671 11.2277 11.6513 10.625 11.6513 9.82143V8.73661L11.5329 8.9375L10.2303 11.0268C9.79605 11.7098 9.36184 11.7902 9.08553 11.7098C8.80921 11.6295 8.45395 11.3482 8.45395 10.5045V8.77679L6.08553 12.5536C6.90841 13.4735 8.05601 14.0239 9.27685 14.0841C10.4977 14.1444 11.6922 13.7096 12.5987 12.875C12.6992 12.7869 12.8294 12.7419 12.9619 12.7494C13.0944 12.7569 13.2189 12.8163 13.3092 12.9152C13.5461 13.1161 13.5066 13.4375 13.3092 13.6384C12.2434 14.6027 10.9013 15.125 9.48026 15.125C6.40132 15.125 3.875 12.5937 3.875 9.5C3.875 6.40625 6.40132 3.875 9.48026 3.875Z" fill="#9495A9"/>
</svg>
