<svg width="18" height="18" viewBox="0 0 18 18" fill="none" xmlns="http://www.w3.org/2000/svg">
<path d="M14.3149 2C15.2237 2 15.9567 2.71062 16 3.54688V17L14.2696 15.5794L13.3195 14.7431L12.2827 13.8694L12.7157 15.2475H3.64181C2.73558 15.2475 2 14.5819 2 13.7V3.55C2 2.71375 2.73688 2.00188 3.64504 2.00188H14.3104L14.3149 2ZM10.3603 5.55188H10.3409L10.2104 5.67687C11.5503 6.05188 12.1986 6.6375 12.1986 6.6375C11.3351 6.22 10.5568 6.01125 9.77857 5.92688C9.21622 5.8425 8.65386 5.88687 8.17877 5.92688H8.04949C7.74569 5.92688 7.09931 6.05188 6.23316 6.38625C5.9313 6.51312 5.75807 6.59625 5.75807 6.59625C5.75807 6.59625 6.40574 5.97 7.83296 5.63562L7.74569 5.55125C7.74569 5.55125 6.66494 5.51125 5.49822 6.345C5.49822 6.345 4.3315 8.31 4.3315 10.7325C4.3315 10.7325 4.97788 11.82 6.75091 11.8612C6.75091 11.8612 7.00946 11.5281 7.27125 11.235C6.27582 10.9425 5.88799 10.3575 5.88799 10.3575C5.88799 10.3575 5.97461 10.3987 6.10453 10.4825H6.14331C6.1627 10.4825 6.17175 10.4919 6.1821 10.5013V10.505C6.19244 10.515 6.20149 10.5237 6.22088 10.5237C6.43418 10.6087 6.64749 10.6925 6.82201 10.7738C7.12323 10.9 7.51041 11.0256 7.9855 11.1088C8.58664 11.1931 9.27568 11.2338 10.0604 11.1088C10.4482 11.0244 10.836 10.9419 11.2239 10.7744C11.476 10.6494 11.7862 10.5244 12.1269 10.3138C12.1269 10.3138 11.739 10.8988 10.7016 11.1912C10.9149 11.4825 11.2155 11.8162 11.2155 11.8162C12.9892 11.7788 13.6782 10.6912 13.717 10.7375C13.717 8.31875 12.5438 6.35 12.5438 6.35C11.487 5.59125 10.498 5.5625 10.3235 5.5625L10.3597 5.55L10.3603 5.55188ZM10.4689 8.31C10.9233 8.31 11.2898 8.685 11.2898 9.14437C11.2898 9.60687 10.9214 9.98187 10.4689 9.98187C10.0164 9.98187 9.648 9.60688 9.648 9.14813C9.64929 8.68563 10.0184 8.31187 10.4689 8.31187V8.31ZM7.53239 8.31C7.98486 8.31 8.35071 8.685 8.35071 9.14437C8.35071 9.60687 7.98227 9.98187 7.5298 9.98187C7.07734 9.98187 6.7089 9.60688 6.7089 9.14813C6.7089 8.68563 7.07734 8.31187 7.5298 8.31187L7.53239 8.31Z" fill="#9495A9"/>
</svg>
