<svg width="18" height="18" viewBox="0 0 18 18" fill="none" xmlns="http://www.w3.org/2000/svg">
<path d="M6.21 15.0946C11.8683 15.0946 14.9643 10.402 14.9643 6.34034C14.9643 6.20804 14.9643 6.07664 14.958 5.94434C15.5608 5.50787 16.081 4.96754 16.4943 4.34864C15.9314 4.5971 15.3349 4.76088 14.724 4.83464C15.3677 4.44951 15.8496 3.84378 16.0803 3.13004C15.4757 3.48868 14.8138 3.74046 14.1237 3.87434C13.8362 3.5673 13.4887 3.32259 13.1028 3.15539C12.7168 2.98819 12.3006 2.90206 11.88 2.90234C11.0639 2.90306 10.2814 3.22758 9.70432 3.80466C9.12724 4.38174 8.80272 5.16423 8.802 5.98034C8.802 6.22064 8.8317 6.45464 8.8803 6.68234C7.65678 6.62093 6.45985 6.3029 5.36721 5.7489C4.27457 5.19491 3.31065 4.41733 2.538 3.46664C2.14525 4.1448 2.02529 4.947 2.20247 5.71038C2.37965 6.47377 2.8407 7.14112 3.49201 7.57694C3.00419 7.5598 2.52725 7.42816 2.09971 7.19264V7.23404C2.09971 8.72264 3.16171 9.97004 4.56571 10.2526C4.30831 10.3246 4.03831 10.3606 3.7557 10.3606C3.5577 10.3606 3.36601 10.3426 3.17971 10.3066C3.37596 10.9182 3.75867 11.4529 4.27419 11.8359C4.78971 12.2189 5.41218 12.431 6.05431 12.4423C4.96469 13.2993 3.61824 13.7644 2.23201 13.7626C1.98631 13.7626 1.73971 13.75 1.50031 13.7203C2.90706 14.6181 4.54118 15.095 6.21 15.0946Z" fill="#9495A9"/>
</svg>
