<svg width="18" height="18" viewBox="0 0 18 18" fill="none" xmlns="http://www.w3.org/2000/svg">
<path d="M9.00001 1.50049C10.989 1.50049 12.8966 2.29063 14.3031 3.6971C15.7096 5.10357 16.4997 7.01114 16.4997 9.00019C16.4997 10.9892 15.7096 12.8968 14.3031 14.3033C12.8966 15.7097 10.989 16.4999 9.00001 16.4999C7.01096 16.4999 5.10338 15.7097 3.69692 14.3033C2.29045 12.8968 1.50031 10.9892 1.50031 9.00019C1.50031 7.01114 2.29045 5.10357 3.69692 3.6971C5.10338 2.29063 7.01096 1.50049 9.00001 1.50049ZM12.7341 6.40909C12.6792 5.94829 12.1221 6.04909 11.8107 6.15349C10.2169 6.76611 8.63419 7.40702 7.0632 8.07589C6.1488 8.48089 5.16961 8.88409 4.293 9.36739C3.86641 9.67969 4.5918 9.88669 5.0877 10.0919C5.64031 10.2611 6.28471 10.5212 6.83731 10.2179C7.91911 9.59599 8.9208 8.84539 9.94681 8.13799C10.134 8.01829 10.7001 7.62769 10.5084 8.09119C9.79741 8.86789 9.00271 9.49519 8.25301 10.235C7.99021 10.4483 7.71751 10.8776 8.01181 11.1773C8.91001 11.8064 9.828 12.4157 10.7388 13.0304C11.1168 13.3328 11.709 13.088 11.7918 12.6155C12.0339 11.1962 12.2814 9.77779 12.4965 8.35399C12.5811 7.70689 12.7035 7.05979 12.7341 6.40909Z" fill="#9495A9"/>
</svg>
