<svg width="24" height="24" viewBox="0 0 24 24" fill="none" xmlns="http://www.w3.org/2000/svg">
<path d="M11.996 16.75C12.332 16.75 12.621 16.617 12.879 16.36L18.73 10.36C18.934 10.156 19.043 9.90599 19.043 9.60999C19.043 8.99999 18.559 8.51599 17.957 8.51599C17.66 8.51599 17.379 8.63299 17.16 8.85199L12.004 14.164L6.84003 8.85199C6.62103 8.64099 6.34803 8.51599 6.04303 8.51599C5.44103 8.51599 4.95703 8.99999 4.95703 9.60899C4.95703 9.90599 5.06703 10.156 5.27003 10.367L11.121 16.359C11.395 16.625 11.668 16.75 11.996 16.75Z" fill="#E0E0FF" fill-opacity="0.6"/>
</svg>
