<svg xmlns="http://www.w3.org/2000/svg" width="20" height="20" viewBox="0 0 20 20">
    <g fill="none" fill-rule="evenodd">
        <g>
            <g>
                <g>
                    <g>
                        <g>
                            <path d="M0 0H20V20H0z" transform="translate(-261 -3640) translate(0 3432) translate(165 180) translate(88 20) translate(8 8)"/>
                            <path fill="#FFF" d="M15.866 15.87h-2.468v-3.868c0-.922-.019-2.109-1.286-2.109-1.287 0-1.484 1.004-1.484 2.041v3.935H8.16V7.917h2.371V9h.032c.331-.625 1.137-1.285 2.34-1.285 2.501 0 2.964 1.646 2.964 3.788v4.365h-.001zM5.373 6.827c-.795 0-1.433-.643-1.433-1.434 0-.79.64-1.432 1.433-1.432.792 0 1.433.642 1.433 1.432 0 .791-.642 1.434-1.433 1.434zM6.61 15.87H4.135V7.917H6.61v7.952zM17.1 1.667H2.898c-.68 0-1.23.537-1.23 1.2v14.266c0 .664.55 1.2 1.23 1.2h14.202c.679 0 1.234-.536 1.234-1.2V2.867c0-.663-.555-1.2-1.234-1.2h.002z" transform="translate(-261 -3640) translate(0 3432) translate(165 180) translate(88 20) translate(8 8)"/>
                        </g>
                    </g>
                </g>
            </g>
        </g>
    </g>
</svg>
