<svg width="10000" height="3955" viewBox="0 0 10000 3955" fill="none" xmlns="http://www.w3.org/2000/svg">
<path d="M4104.15 2275.9C4071.35 2285.3 4045.17 2299.55 4027.71 2319.09L4027.65 2319.16L4027.59 2319.22C3996.34 2351.33 3973.8 2365.07 3946.98 2371.19C3933.96 2374.15 3920.76 2374.69 3907.73 2374.53C3902.03 2374.46 3896.51 2374.27 3891.03 2374.08L3890.99 2374.07H3890.95H3890.94L3890.08 2374.04C3883.06 2373.8 3876.12 2373.56 3869.01 2373.62C3846.66 2373.77 3828.91 2377.17 3813.76 2384.8C3798.63 2392.41 3785.77 2404.39 3773.51 2422.27C3768.7 2429.28 3764.35 2436.48 3759.94 2443.79V2443.8L3759.93 2443.81L3759.8 2444.02L3759.76 2444.09C3757.27 2448.22 3754.75 2452.4 3752.11 2456.59C3744.85 2468.11 3736.9 2479.42 3726.74 2489.03C3709.87 2505 3692.67 2513.63 3672.61 2517.41C3652.76 2521.15 3630.28 2520.1 3602.92 2517.08C3544.2 2515.78 3503.87 2522.47 3470.62 2539.61C3437.33 2556.78 3410.67 2584.68 3379.77 2626.82C3344.17 2677.15 3314.16 2705.48 3281.25 2718.02C3248.28 2730.59 3213.16 2727.01 3168.19 2715.48L3168.16 2715.47H3168.14C3106.46 2698.85 3053.61 2738.59 2988.5 2772.43C2983.04 2775.27 2977.56 2778.14 2972.07 2781.03L2971.99 2781.07C2945.18 2795.13 2915.24 2807.52 2887.72 2818.92L2887.14 2819.16H2887.11L2887.06 2819.19C2853.97 2832.87 2813.52 2833.75 2779.01 2833.93C2736.04 2834.06 2696.92 2838.52 2664.15 2847.9C2631.35 2857.3 2605.17 2871.55 2587.71 2891.09L2587.65 2891.16L2587.59 2891.22C2556.34 2923.33 2533.8 2937.07 2506.98 2943.19C2493.96 2946.15 2480.76 2946.69 2467.73 2946.53C2462.03 2946.46 2456.5 2946.27 2451.01 2946.08L2450.99 2946.07L2450.11 2946.04C2443.08 2945.8 2436.13 2945.56 2429.01 2945.62C2406.66 2945.77 2388.91 2949.17 2373.76 2956.8C2358.63 2964.41 2345.77 2976.39 2333.51 2994.27C2328.7 3001.28 2324.35 3008.48 2319.94 3015.8L2319.26 3016.93L2318.7 3017.84C2316.55 3021.4 2314.38 3024.99 2312.11 3028.59C2304.85 3040.11 2296.9 3051.42 2286.74 3061.03C2269.87 3077 2252.67 3085.63 2232.6 3089.41C2212.75 3093.15 2190.28 3092.1 2162.92 3089.08C2104.2 3087.78 2063.87 3094.47 2030.62 3111.61C1997.33 3128.78 1970.67 3156.68 1939.77 3198.82C1904.17 3249.15 1874.15 3277.48 1841.25 3290.02C1808.28 3302.59 1773.16 3299.01 1728.19 3287.48L1728.16 3287.47H1728.14C1669.3 3271.61 1626.81 3309.75 1572.34 3343.27C1570.91 3344.15 1569.48 3345.03 1568.04 3345.92L1565.09 3347.73C1507.65 3382.97 1437.62 3410.27 1337.31 3403.94C1295 3404.18 1256.49 3408.64 1224.15 3417.9C1191.35 3427.3 1165.17 3441.55 1147.71 3461.09L1147.65 3461.16L1147.59 3461.22C1116.34 3493.33 1093.8 3507.07 1066.98 3513.18C1053.96 3516.15 1040.76 3516.69 1027.73 3516.53C1022.02 3516.46 1016.48 3516.27 1010.99 3516.07L1010.13 3516.04H1010.09L1009.89 3516.03C1002.93 3515.79 996.049 3515.56 989.003 3515.62C966.662 3515.77 948.904 3519.17 933.753 3526.8C918.628 3534.41 905.771 3546.39 893.504 3564.27C888.695 3571.28 884.347 3578.48 879.933 3585.8L879.789 3586.04C877.283 3590.19 874.754 3594.38 872.107 3598.59C864.851 3610.11 856.901 3621.42 846.736 3631.03C829.864 3647 812.663 3655.63 792.603 3659.41C772.753 3663.15 750.273 3662.1 722.914 3659.08C664.2 3657.78 623.865 3664.47 590.619 3681.61C557.329 3698.78 530.672 3726.68 499.774 3768.82C464.167 3819.15 434.153 3847.48 401.251 3860.02C368.277 3872.59 333.159 3869.01 288.186 3857.48L288.162 3857.47H288.139C225.027 3840.46 178.602 3837.26 136.24 3851.74C93.8061 3866.23 54.79 3898.68 7.03746 3954.53L0.957031 3949.33C48.9748 3893.17 89.1435 3859.37 133.654 3844.17C178.233 3828.94 226.507 3832.58 290.197 3849.74C334.78 3861.16 367.843 3864.19 398.401 3852.54C429.032 3840.87 457.903 3814.16 493.262 3764.17L493.302 3764.11C524.437 3721.65 551.989 3692.53 586.952 3674.5C621.932 3656.46 663.854 3649.75 723.268 3651.08L723.444 3651.09L723.619 3651.11C750.942 3654.13 772.471 3655.06 791.122 3651.54C809.604 3648.06 825.427 3640.18 841.238 3625.22C850.671 3616.3 858.198 3605.66 865.337 3594.33C867.751 3590.49 870.147 3586.53 872.562 3582.53L872.889 3581.99C877.402 3574.51 881.99 3566.91 886.908 3559.74C899.725 3541.06 913.531 3528.01 930.158 3519.65C946.76 3511.3 965.845 3507.78 988.947 3507.62C996.235 3507.56 1003.78 3507.82 1011.21 3508.08L1011.63 3508.09H1011.64L1011.87 3508.1L1013.24 3508.14C1018.19 3508.31 1023.08 3508.47 1027.82 3508.53C1040.62 3508.69 1053.08 3508.15 1065.2 3505.38C1089.96 3499.75 1111.18 3487.15 1141.8 3455.7C1160.6 3434.69 1188.31 3419.85 1221.95 3410.21C1255.64 3400.56 1295.53 3396.06 1338.99 3395.93C1435.99 3401.71 1503.96 3375.85 1560.91 3340.91C1562.95 3339.65 1564.98 3338.4 1567.01 3337.15L1569 3335.93C1622.6 3302.91 1667.95 3262.97 1730.2 3279.74C1774.78 3291.16 1807.84 3294.19 1838.4 3282.54C1869.03 3270.87 1897.9 3244.16 1933.26 3194.17L1933.3 3194.11C1964.44 3151.65 1991.99 3122.53 2026.95 3104.5C2061.93 3086.46 2103.86 3079.76 2163.27 3081.08L2163.45 3081.09L2163.62 3081.11C2190.94 3084.13 2212.47 3085.06 2231.12 3081.54C2249.61 3078.06 2265.43 3070.18 2281.24 3055.22C2290.67 3046.3 2298.2 3035.66 2305.34 3024.32C2307.73 3020.52 2310.1 3016.6 2312.49 3012.63L2312.87 3012.01L2312.88 3012L2312.89 3011.99L2312.9 3011.98L2313.03 3011.76L2313.09 3011.65C2317.54 3004.29 2322.06 2996.8 2326.91 2989.74C2339.73 2971.06 2353.53 2958.01 2370.16 2949.65C2386.76 2941.3 2405.85 2937.78 2428.95 2937.62C2436.37 2937.56 2444.06 2937.83 2451.63 2938.09L2451.9 2938.1C2457.31 2938.28 2462.66 2938.47 2467.82 2938.53C2480.62 2938.68 2493.08 2938.15 2505.21 2935.38C2529.96 2929.75 2551.18 2917.15 2581.8 2885.7C2600.6 2864.69 2628.31 2849.85 2661.95 2840.21C2695.38 2830.64 2734.92 2826.13 2778 2825.93C2811.39 2825.93 2851.08 2825.41 2884 2811.79L2885.28 2811.27L2885.54 2811.16C2912.46 2800.02 2941.67 2787.93 2968.17 2774.03L2968.23 2774L2970.37 2772.88L2970.38 2772.87C2975.19 2770.35 2980 2767.83 2984.81 2765.33C3049.46 2731.73 3105.08 2690.2 3170.2 2707.74C3214.78 2719.16 3247.85 2722.19 3278.4 2710.54C3309.03 2698.87 3337.91 2672.16 3373.26 2622.17L3373.3 2622.11C3404.44 2579.65 3431.99 2550.53 3466.95 2532.5C3501.93 2514.46 3543.86 2507.76 3603.27 2509.08L3603.45 2509.09L3603.62 2509.11C3630.95 2512.13 3652.47 2513.06 3671.12 2509.54C3689.61 2506.06 3705.43 2498.18 3721.24 2483.22C3730.67 2474.3 3738.2 2463.66 3745.34 2452.32C3747.71 2448.55 3750.06 2444.66 3752.44 2440.73L3752.47 2440.68L3752.89 2439.99C3757.4 2432.51 3761.99 2424.91 3766.91 2417.74C3779.73 2399.06 3793.53 2386.01 3810.16 2377.65C3826.76 2369.3 3845.85 2365.78 3868.95 2365.62C3876.22 2365.56 3883.74 2365.82 3891.15 2366.07L3891.6 2366.09H3891.61H3891.63L3891.9 2366.1C3897.31 2366.28 3902.66 2366.47 3907.83 2366.53C3920.62 2366.68 3933.09 2366.15 3945.21 2363.38C3969.96 2357.75 3991.18 2345.15 4021.8 2313.7C4040.6 2292.69 4068.31 2277.85 4101.95 2268.21C4135.64 2258.56 4175.53 2254.06 4218.99 2253.93C4246.56 2254.33 4276.79 2259.85 4311.69 2269.25C4356.27 2280.67 4389.33 2283.7 4419.89 2272.05C4450.52 2260.38 4479.39 2233.67 4514.75 2183.68L4514.79 2183.62C4545.93 2141.16 4573.48 2112.04 4608.44 2094.01C4643.42 2075.97 4685.35 2069.26 4744.76 2070.59L4744.94 2070.6L4745.11 2070.62C4772.43 2073.64 4793.96 2074.57 4812.61 2071.05C4831.1 2067.57 4846.92 2059.69 4862.73 2044.73C4872.16 2035.81 4879.69 2025.17 4886.83 2013.84C4889.24 2010.01 4891.62 2006.06 4894.03 2002.08L4894.04 2002.06L4894.38 2001.5C4898.89 1994.02 4903.48 1986.42 4908.4 1979.25C4921.22 1960.57 4935.02 1947.52 4951.65 1939.16C4968.25 1930.81 4987.34 1927.29 5010.44 1927.13C5017.72 1927.07 5025.26 1927.33 5032.69 1927.59L5033.12 1927.6H5033.13L5033.36 1927.61H5033.38H5033.41C5038.81 1927.8 5044.15 1927.98 5049.31 1928.04C5062.11 1928.2 5074.57 1927.66 5086.69 1924.89C5111.45 1919.26 5132.67 1906.66 5163.29 1875.21C5182.09 1854.2 5209.8 1839.36 5243.44 1829.72C5277.13 1820.07 5317.02 1815.57 5360.48 1815.44C5457.48 1821.22 5525.45 1795.36 5582.4 1760.42L5585.97 1758.22L5587.63 1757.2L5590.49 1755.44C5644.09 1722.42 5689.44 1682.48 5751.69 1699.25C5796.27 1710.67 5829.33 1713.7 5859.89 1702.05C5890.52 1690.38 5919.39 1663.67 5954.75 1613.68L5954.77 1613.65L5954.79 1613.62C5985.93 1571.16 6013.48 1542.04 6048.44 1524.01C6083.42 1505.97 6125.35 1499.27 6184.76 1500.59L6184.94 1500.6L6185.11 1500.62C6212.43 1503.64 6233.96 1504.57 6252.61 1501.05C6271.1 1497.57 6286.92 1489.69 6302.73 1474.73C6312.16 1465.81 6319.69 1455.17 6326.83 1443.84C6329.03 1440.34 6331.2 1436.75 6333.4 1433.11L6333.99 1432.14L6334.36 1431.52L6334.37 1431.51L6334.38 1431.5L6334.39 1431.49L6334.52 1431.26C6338.99 1423.86 6343.53 1416.35 6348.4 1409.25C6361.22 1390.57 6375.02 1377.52 6391.65 1369.16C6408.25 1360.81 6427.34 1357.29 6450.44 1357.13C6457.73 1357.07 6465.29 1357.33 6472.73 1357.58L6473.12 1357.6C6478.62 1357.79 6484.06 1357.98 6489.31 1358.04C6502.11 1358.2 6514.57 1357.66 6526.7 1354.89C6551.45 1349.26 6572.67 1336.66 6603.29 1305.21C6622.09 1284.2 6649.8 1269.36 6683.44 1259.72C6716.87 1250.15 6756.41 1245.64 6799.49 1245.44C6832.88 1245.44 6872.57 1244.92 6905.49 1231.3L6906.78 1230.77H6906.79L6906.8 1230.76L6907.07 1230.65C6933.97 1219.52 6963.17 1207.44 6989.66 1193.54L6989.72 1193.51L6991.77 1192.44L6992.05 1192.29L6992.16 1192.23L6992.3 1192.15C6996.96 1189.71 7001.63 1187.26 7006.3 1184.84C7070.95 1151.24 7126.57 1109.71 7191.69 1127.25C7236.27 1138.67 7269.34 1141.7 7299.89 1130.05C7330.52 1118.38 7359.4 1091.67 7394.75 1041.68L7394.79 1041.62C7425.93 999.157 7453.48 970.037 7488.44 952.007C7523.42 933.967 7565.35 927.267 7624.76 928.587L7624.94 928.597L7625.11 928.617C7652.44 931.637 7673.96 932.567 7692.61 929.047C7711.1 925.567 7726.92 917.687 7742.73 902.727C7752.16 893.807 7759.69 883.167 7766.83 871.837C7769.21 868.047 7771.57 864.147 7773.96 860.197L7774.38 859.497C7778.89 852.02 7783.48 844.417 7788.4 837.249C7801.22 818.569 7815.02 805.521 7831.65 797.156C7848.25 788.803 7867.34 785.287 7890.44 785.124C7897.86 785.071 7905.54 785.336 7913.1 785.597L7913.12 785.598C7918.62 785.788 7924.06 785.974 7929.32 786.038C7942.11 786.192 7954.58 785.654 7966.7 782.892C7991.45 777.253 8012.67 764.653 8043.29 733.206C8062.09 712.194 8089.8 697.353 8123.44 687.72C8157.13 678.071 8197.02 673.572 8240.48 673.438C8267.38 674.118 8297.39 679.206 8331.24 688.326C8375.82 699.746 8408.89 702.776 8439.44 691.126C8470.08 679.456 8498.95 652.746 8534.3 602.756L8534.34 602.696C8565.48 560.236 8593.03 531.116 8628 513.086C8662.98 495.046 8704.9 488.336 8764.31 489.666L8764.49 489.676L8764.66 489.696C8791.99 492.716 8813.51 493.646 8832.17 490.126C8850.65 486.646 8866.47 478.766 8882.28 463.806C8891.71 454.886 8899.24 444.246 8906.38 432.916C8908.76 429.131 8911.13 425.222 8913.51 421.28L8913.59 421.149L8913.93 420.576C8918.44 413.096 8923.03 405.496 8927.95 398.326C8940.77 379.646 8954.57 366.596 8971.2 358.236C8987.8 349.886 9006.89 346.366 9029.99 346.206C9037.26 346.147 9044.77 346.405 9052.19 346.66L9052.23 346.661L9052.67 346.676H9052.68L9052.91 346.684L9052.99 346.687C9058.37 346.873 9063.71 347.057 9068.86 347.116C9081.66 347.276 9094.12 346.736 9106.24 343.966C9131 338.336 9152.22 325.736 9182.84 294.286C9201.64 273.276 9229.35 258.436 9262.99 248.796C9296.68 239.146 9336.57 234.646 9380.03 234.516C9477.03 240.296 9545 214.436 9601.95 179.496L9605.94 177.041L9610.04 174.516C9663.64 141.496 9708.99 101.556 9771.24 118.326C9815.82 129.746 9848.88 132.776 9879.44 121.126C9910.07 109.456 9938.94 82.7451 9974.3 32.7551L9974.34 32.699C9983.1 20.7611 9991.57 9.87816 10000 0V12.4824C9993.72 20.1714 9987.36 28.4675 9980.81 37.4041C9945.21 87.7381 9915.19 116.066 9882.29 128.606C9849.32 141.176 9814.2 137.596 9769.23 126.066L9769.2 126.056H9769.18C9710.34 110.196 9667.85 148.336 9613.38 181.856L9609.08 184.504L9606.13 186.316C9548.69 221.556 9478.66 248.856 9378.35 242.526C9336.04 242.766 9297.53 247.226 9265.19 256.486C9232.39 265.886 9206.21 280.136 9188.75 299.676L9188.69 299.746L9188.63 299.806C9157.38 331.916 9134.84 345.656 9108.02 351.766C9095 354.736 9081.8 355.276 9068.77 355.116C9063.06 355.046 9057.52 354.856 9052.03 354.656L9051.17 354.627L9051.15 354.626L9051.13 354.625C9044.11 354.385 9037.16 354.148 9030.05 354.206C9007.7 354.356 8989.95 357.756 8974.8 365.386C8959.67 372.996 8946.81 384.976 8934.55 402.856C8929.74 409.866 8925.39 417.066 8920.98 424.386L8920.83 424.625C8918.33 428.777 8915.8 432.967 8913.15 437.176C8905.89 448.696 8897.94 460.006 8887.78 469.616C8870.91 485.586 8853.71 494.216 8833.65 497.996C8813.8 501.736 8791.32 500.686 8763.96 497.666C8705.24 496.366 8664.91 503.056 8631.66 520.196C8598.37 537.366 8571.72 565.266 8540.82 607.406C8505.21 657.736 8475.2 686.066 8442.29 698.606C8409.32 711.176 8374.2 707.596 8329.23 696.066L8329.21 696.056H8329.18C8295.51 686.981 8266.59 682.064 8240.5 681.438C8197.53 681.57 8158.41 686.025 8125.64 695.411C8092.84 704.804 8066.66 719.059 8049.2 738.601L8049.14 738.665L8049.08 738.726C8017.83 770.837 7995.29 784.582 7968.47 790.693C7955.45 793.66 7942.25 794.194 7929.22 794.037C7923.57 793.97 7918.09 793.779 7912.65 793.589L7912.51 793.584L7912.48 793.582L7912.44 793.581C7905.13 793.325 7897.91 793.071 7890.5 793.124C7868.15 793.282 7850.4 796.682 7835.25 804.304C7820.12 811.913 7807.26 823.899 7795 841.776C7790.19 848.784 7785.84 855.987 7781.43 863.297V863.307L7781.42 863.317L7781.3 863.527L7781.27 863.557L7781.03 863.953C7778.61 867.973 7776.17 872.031 7773.6 876.097C7766.34 887.617 7758.39 898.927 7748.23 908.537C7731.36 924.507 7714.16 933.137 7694.1 936.917C7674.25 940.657 7651.77 939.607 7624.41 936.587C7565.69 935.287 7525.36 941.977 7492.11 959.117C7458.82 976.287 7432.16 1004.19 7401.26 1046.33C7365.66 1096.66 7335.65 1124.99 7302.74 1137.53C7269.77 1150.1 7234.65 1146.52 7189.68 1134.99L7189.65 1134.98H7189.63C7127.95 1118.36 7075.1 1158.1 7009.99 1191.94C7004.53 1194.78 6999.05 1197.65 6993.56 1200.54L6993.48 1200.58C6966.53 1214.71 6936.42 1227.17 6908.76 1238.61L6908.6 1238.68L6908.55 1238.7C6875.46 1252.38 6835.01 1253.26 6800.5 1253.44C6757.53 1253.57 6718.41 1258.03 6685.64 1267.41C6652.84 1276.81 6626.66 1291.06 6609.2 1310.6L6609.14 1310.67L6609.08 1310.73C6577.83 1342.84 6555.29 1356.58 6528.47 1362.7C6515.45 1365.66 6502.25 1366.2 6489.22 1366.04C6483.52 1365.97 6478 1365.78 6472.52 1365.59H6472.51H6472.48L6472.45 1365.58H6472.43L6471.58 1365.55C6464.56 1365.31 6457.61 1365.07 6450.5 1365.13C6428.15 1365.29 6410.4 1368.68 6395.25 1376.31C6380.12 1383.92 6367.26 1395.9 6355 1413.78C6350.19 1420.79 6345.84 1427.99 6341.43 1435.31L6340.75 1436.43C6338.42 1440.29 6336.06 1444.19 6333.6 1448.1C6326.34 1459.62 6318.39 1470.93 6308.23 1480.54C6291.36 1496.51 6274.16 1505.14 6254.09 1508.92C6234.24 1512.66 6211.77 1511.61 6184.41 1508.59C6125.69 1507.29 6085.36 1513.98 6052.11 1531.12C6018.82 1548.29 5992.16 1576.19 5961.26 1618.33C5925.66 1668.66 5895.64 1696.99 5862.74 1709.53C5829.77 1722.1 5794.65 1718.52 5749.68 1706.99L5749.65 1706.98H5749.63C5690.79 1691.12 5648.3 1729.26 5593.83 1762.78C5591.94 1763.94 5590.05 1765.11 5588.14 1766.28L5586.58 1767.24C5529.14 1802.48 5459.11 1829.78 5358.8 1823.45C5316.49 1823.69 5277.98 1828.15 5245.64 1837.41C5212.84 1846.81 5186.66 1861.06 5169.2 1880.6L5169.14 1880.67L5169.08 1880.73C5137.83 1912.84 5115.29 1926.58 5088.47 1932.69C5075.45 1935.66 5062.25 1936.2 5049.22 1936.04C5043.51 1935.97 5037.97 1935.78 5032.48 1935.58L5031.62 1935.55C5024.58 1935.31 5017.62 1935.07 5010.49 1935.13C4988.15 1935.28 4970.4 1938.68 4955.24 1946.31C4940.12 1953.92 4927.26 1965.9 4915 1983.78C4911.39 1989.04 4908.04 1994.4 4904.73 1999.84L4904.55 2000.13C4903.51 2001.85 4902.47 2003.57 4901.42 2005.31L4901.28 2005.55C4898.77 2009.7 4896.25 2013.89 4893.6 2018.1C4886.34 2029.62 4878.39 2040.93 4868.23 2050.54C4851.36 2066.51 4834.15 2075.14 4814.09 2078.92C4794.24 2082.66 4771.76 2081.61 4744.41 2078.59C4685.69 2077.29 4645.36 2083.98 4612.11 2101.12C4578.82 2118.29 4552.16 2146.19 4521.27 2188.33C4485.66 2238.66 4455.64 2266.99 4422.74 2279.53C4389.77 2292.1 4354.65 2288.52 4309.68 2276.99L4309.65 2276.98H4309.63C4274.66 2267.56 4245.88 2262.22 4219.01 2261.93C4176.04 2262.06 4136.92 2266.52 4104.15 2275.9Z" fill="#6FB1FB"/>
</svg>
