<svg width="22" height="22" viewBox="0 0 22 22" fill="none" xmlns="http://www.w3.org/2000/svg">
<path fill-rule="evenodd" clip-rule="evenodd" d="M11 20.9C16.4677 20.9 20.9 16.4677 20.9 11C20.9 5.53239 16.4677 1.1 11 1.1C5.53239 1.1 1.1 5.53239 1.1 11C1.1 16.4677 5.53239 20.9 11 20.9ZM11 22C17.0752 22 22 17.0752 22 11C22 4.92488 17.0752 0 11 0C4.92488 0 0 4.92488 0 11C0 17.0752 4.92488 22 11 22Z" fill="#E0E0FF"/>
<path fill-rule="evenodd" clip-rule="evenodd" d="M2.75 17.0501C2.75 17.0501 3.50403 15.5451 3.88655 12.4919C3.94068 12.0599 3.97892 11.6102 4.01751 11.1565C4.19466 9.07331 4.3791 6.90441 6.14202 5.96182C7.11752 5.44024 8.30819 5.26868 9.44677 5.31195C10.7096 5.35994 11.9298 5.82862 13.1492 6.29697C14.0449 6.641 14.9401 6.98485 15.8514 7.16166C17.0114 7.38672 18.121 7.73387 18.862 8.65436C20.2395 10.3654 18.4364 12.8718 17.0692 13.3111C16.1933 13.5925 15.1745 14.9185 14.4023 16.1902C13.4438 17.7687 12.4755 19.7515 13.2 21.4501C3.88137 21.1645 2.75 17.0501 2.75 17.0501ZM9.70266 10.7321C10.9177 10.7321 11.9027 9.74712 11.9027 8.53209C11.9027 7.31706 10.9177 6.33209 9.70266 6.33209C8.48763 6.33209 7.50266 7.31706 7.50266 8.53209C7.50266 9.74712 8.48763 10.7321 9.70266 10.7321ZM17.6318 12.513C16.9217 12.9491 15.9095 13.3955 14.7347 13.3955C13.6089 13.3955 12.7343 13.274 12.1378 13.1511C11.8395 13.0897 11.6109 13.028 11.4551 12.981C11.3772 12.9574 11.3176 12.9376 11.2766 12.9233C11.2561 12.9162 11.2402 12.9104 11.2291 12.9063L11.2159 12.9013L11.212 12.8998L11.2107 12.8993C11.2107 12.8993 11.2099 12.899 11.3106 12.6431C11.4114 12.3872 11.4112 12.3872 11.4112 12.3872L11.4124 12.3876L11.4205 12.3907C11.4282 12.3935 11.4405 12.398 11.4575 12.4039C11.4914 12.4157 11.5438 12.4332 11.6141 12.4544C11.7548 12.4969 11.9674 12.5545 12.2487 12.6124C12.8112 12.7283 13.6487 12.8455 14.7347 12.8455C15.7718 12.8455 16.6834 12.45 17.344 12.0444C17.673 11.8424 17.9355 11.6403 18.1152 11.4894C18.205 11.414 18.2737 11.3516 18.3194 11.3087C18.3423 11.2873 18.3593 11.2707 18.3704 11.2599L18.3823 11.248L18.3848 11.2454C18.3848 11.2454 18.385 11.2453 18.5822 11.4369C18.7795 11.6285 18.7793 11.6287 18.7793 11.6287L18.7773 11.6308L18.7726 11.6355L18.7563 11.6517C18.7423 11.6655 18.722 11.6852 18.6958 11.7098C18.6435 11.7589 18.5671 11.8281 18.469 11.9105C18.2729 12.0753 17.9883 12.2941 17.6318 12.513Z" fill="#E0E0FF"/>
<circle cx="9.70267" cy="8.53201" r="1.29605" fill="#E0E0FF"/>
</svg>
