<svg width="20" height="20" viewBox="0 0 20 20" fill="none" xmlns="http://www.w3.org/2000/svg">
<path d="M18.5873 7.68076C18.5992 7.63644 18.5838 7.60858 18.5897 7.58642C18.5744 7.55856 18.5803 7.5364 18.5649 7.50854V7.4988C18.5649 7.4988 18.5496 7.48069 18.5282 7.47496L12.343 1.06901C12.3217 1.0633 12.3063 1.03543 12.3063 1.03543L12.285 1.02973L12.2637 1.02402C12.2424 1.01832 12.2424 1.01832 12.2211 1.01261L12.1998 1.00691L12.1785 1.0012C12.1571 0.995497 12.1299 1.01195 12.1299 1.01195L3.56761 3.46974C3.56761 3.46974 3.56761 3.46974 3.54627 3.46401C3.54627 3.46401 3.54627 3.46401 3.51903 3.48048C3.49179 3.49694 3.46452 3.51338 3.45858 3.53554C3.43134 3.55201 3.42537 3.57417 3.41944 3.59633L3.4135 3.61846L3.40757 3.64062L1.03047 12.5044C1.02453 12.5265 1.01859 12.5487 1.01265 12.5709L1.0067 12.593L1.00076 12.6152C1.00076 12.6152 0.99482 12.6373 1.01613 12.643C1.01613 12.643 1.01613 12.643 1.0315 12.6709C1.0315 12.6709 1.02556 12.6931 1.04687 12.6988C1.06224 12.7266 1.06224 12.7266 1.07761 12.7545L7.26283 19.1605C7.26283 19.1605 7.26283 19.1605 7.28413 19.1662L7.30547 19.1719C7.32677 19.1776 7.34214 19.2054 7.36345 19.2111C7.38475 19.2168 7.40606 19.2226 7.43333 19.2061L7.45464 19.2118L7.47594 19.2175L16.0383 16.7597C16.0596 16.7655 16.0655 16.7433 16.0928 16.7268C16.0928 16.7268 16.0928 16.7268 16.12 16.7104C16.12 16.7104 16.12 16.7104 16.1473 16.6939L16.1745 16.6775L16.1805 16.6553L16.1864 16.6331C16.1923 16.611 16.1983 16.5888 16.2043 16.5667L18.5873 7.68076ZM18.5873 7.68076C18.5813 7.70293 18.5813 7.70293 18.5873 7.68076V7.68076ZM17.942 7.53177L14.2555 8.58736L12.592 2.01442L17.942 7.53177ZM12.0641 1.6831L13.7842 8.55618L7.135 6.77609L12.0641 1.6831ZM11.4412 1.70633L6.71124 6.5676L4.04691 3.81182L11.4412 1.70633ZM3.72683 4.15362L6.39115 6.90944L1.68253 11.7764L3.72683 4.15362ZM6.59442 7.34387L8.31448 14.2169L1.66531 12.4368L6.59442 7.34387ZM7.32266 18.5115L1.97269 12.9941L8.3448 14.7001L7.32266 18.5115ZM8.73621 14.0923L7.01616 7.21927L13.644 8.99366L8.73621 14.0923ZM7.74889 18.6256L8.77104 14.8142L15.1432 16.5201L7.74889 18.6256ZM9.03908 14.4109L13.9682 9.31793L15.6883 16.191L9.03908 14.4109ZM16.0038 15.6105L14.3617 9.04327L18.0481 7.98768L16.0038 15.6105Z" stroke="#E0E0FF" stroke-width="1.37228" stroke-linejoin="round"/>
</svg>
