<svg width="20" height="20" viewBox="0 0 20 20" fill="none" xmlns="http://www.w3.org/2000/svg">
<path d="M10 20C15.5228 20 20 15.5228 20 10C20 4.47715 15.5228 0 10 0C4.47715 0 0 4.47715 0 10C0 15.5228 4.47715 20 10 20Z" fill="#E0E0FF"/>
<path fill-rule="evenodd" clip-rule="evenodd" d="M10 2.5C14.142 2.5 17.5 5.858 17.5 10C17.5 14.142 14.142 17.5 10 17.5C5.858 17.5 2.5 14.142 2.5 10C2.5 5.858 5.858 2.5 10 2.5ZM10 5.3465C7.302 5.3465 5.3465 7.3665 5.3465 9.9995C5.3465 12.633 7.302 14.653 9.9995 14.653C11.636 14.653 13.068 13.848 13.8345 12.582L12.0705 11.5595C11.687 12.2495 10.9075 12.6585 9.9995 12.6585C8.4145 12.6585 7.3915 11.5975 7.3915 9.9995C7.3915 8.4015 8.4145 7.3405 9.9995 7.3405C10.9075 7.3405 11.6745 7.7495 12.0705 8.44L13.835 7.4175C13.055 6.1515 11.623 5.346 10 5.346V5.3465Z" fill="#25272C"/>
</svg>
