<svg xmlns="http://www.w3.org/2000/svg" width="128" height="128" viewBox="0 0 128 128">
    <defs>
        <linearGradient id="u1fd6itaka" x1="0%" x2="99.852%" y1="0%" y2="99.852%">
            <stop offset="0%" stop-color="#0FA"/>
            <stop offset="53.085%" stop-color="#4579F5"/>
            <stop offset="99.982%" stop-color="#9C42F5"/>
        </linearGradient>
    </defs>
    <g fill="none" fill-rule="evenodd">
        <g>
            <g>
                <g>
                    <path fill="url(#u1fd6itaka)" d="M64 0c35.346 0 64 28.654 64 64 0 35.346-28.654 64-64 64-35.346 0-64-28.654-64-64C0 28.654 28.654 0 64 0z" transform="translate(-200 -640) translate(200 600) translate(0 40)"/>
                    <g>
                        <path fill="#FFF" fill-rule="nonzero" d="M60.788 12.708l1.278-2.381 1.74.933c.764.41 1.496.641 2.193.693.698.05 1.326-.078 1.884-.388.558-.31 1.007-.781 1.347-1.415.344-.641.49-1.278.437-1.91-.053-.632-.293-1.227-.72-1.784-.426-.557-1.022-1.04-1.787-1.45L63.422 3l-4.632 8.636 1.998 1.072zm3.78-3.136l-1.629-.873L64.547 5.7l1.629.873c.6.322.987.697 1.16 1.123.174.427.13.883-.13 1.368-.255.477-.609.762-1.06.853-.452.091-.978-.024-1.578-.346zm8.522 12.401l1.26-1.313-3.85-3.692 1.57-1.637 3.283 3.15 1.221-1.274-3.283-3.15 1.473-1.535 3.718 3.566 1.26-1.313-5.345-5.127-6.784 7.073 5.477 5.252zm2.187 3.372l2.35-1.39 1.062 1.795-1.387 3.017 1.24 2.096 1.592-3.495c.569.411 1.17.634 1.801.666.633.033 1.262-.136 1.888-.507.627-.37 1.081-.84 1.363-1.408.282-.568.385-1.201.308-1.899-.076-.697-.336-1.42-.778-2.167l-2.16-3.65-8.434 4.99 1.155 1.952zm4.845-.72l-.941-1.59 2.94-1.74.94 1.591c.348.586.485 1.107.413 1.562-.073.455-.346.823-.82 1.103-.466.276-.918.337-1.355.184-.438-.153-.83-.523-1.177-1.11zm-.383 10.864c.236.864.566 1.563.992 2.095.425.532.902.889 1.43 1.069.527.18 1.062.197 1.602.05.63-.172 1.085-.472 1.365-.902.28-.429.443-.896.489-1.402.046-.506.056-1.143.031-1.91-.035-.735-.02-1.293.045-1.673.066-.38.26-.615.585-.704.324-.088.625-.013.903.226.278.239.5.664.667 1.277.238.873.228 1.814-.03 2.823l1.846.223c.152-.506.222-1.067.21-1.682-.014-.616-.102-1.225-.267-1.829-.235-.864-.565-1.56-.989-2.088-.424-.528-.9-.88-1.426-1.056-.527-.175-1.065-.188-1.614-.039-.63.172-1.09.473-1.379.905-.289.432-.456.9-.502 1.406-.046.506-.057 1.143-.032 1.91.02.497.022.896.007 1.195-.016.3-.074.557-.174.773-.101.216-.264.355-.49.416-.306.083-.591.002-.857-.245-.265-.247-.483-.681-.652-1.303-.152-.558-.214-1.14-.186-1.748.028-.608.136-1.154.322-1.64l-1.85-.295c-.209.512-.32 1.144-.332 1.897-.013.753.083 1.503.286 2.25zm1.06 10.235c-.022 1.017.178 1.937.6 2.758.42.82 1.011 1.473 1.77 1.956.76.483 1.621.735 2.582.755.961.02 1.832-.194 2.612-.644s1.397-1.076 1.853-1.879c.456-.802.695-1.712.717-2.73.021-1.016-.178-1.938-.6-2.764-.42-.825-1.011-1.477-1.77-1.956-.76-.478-1.621-.728-2.583-.748-.96-.02-1.831.192-2.61.637-.78.446-1.398 1.072-1.854 1.879-.456.807-.695 1.72-.717 2.736zm1.932.042c.012-.579.156-1.099.432-1.56.276-.46.655-.819 1.136-1.074.482-.256 1.026-.378 1.632-.365.607.013 1.145.158 1.616.434.47.276.833.65 1.089 1.122.256.473.378.998.365 1.577-.012.578-.156 1.098-.432 1.559-.276.46-.655.819-1.136 1.075-.482.255-1.026.377-1.633.364-.606-.013-1.145-.158-1.615-.434s-.833-.65-1.089-1.122c-.256-.472-.378-.998-.365-1.576zm-3.035 9.013l5.603 2-7.246 2.602-.626 1.753 9.23 3.295.753-2.11-5.604-2 7.242-2.588.63-1.767-9.23-3.294-.752 2.11zm-3.97 9.153l1.147 1.961-2.752 3.623-2.197-.579-1.44 1.895 10.454 2.439 1.355-1.784-5.161-9.406-1.406 1.85zm.198 6.057l1.88-2.475 2.048 3.507-3.928-1.032zm-11.953 5.807L65.1 77.26l3.893-2.999 4.853 6.3 1.796-1.384-5.98-7.764-5.69 4.383zm-9.242 3.379c-.815.239-1.511.599-2.09 1.08-.579.48-1.012 1.06-1.3 1.738l1.776.88c.418-.93 1.097-1.533 2.037-1.809.582-.17 1.14-.195 1.67-.074.532.121.993.373 1.382.755.39.382.67.864.84 1.446.17.582.195 1.14.074 1.67-.121.532-.373.993-.755 1.382-.382.39-.864.67-1.446.84-.94.276-1.836.14-2.687-.408l-1.02 1.699c.606.406 1.28.656 2.022.75.743.093 1.521.02 2.336-.219.968-.283 1.778-.747 2.43-1.39.653-.644 1.092-1.4 1.319-2.27.227-.868.203-1.769-.07-2.7-.273-.932-.74-1.702-1.4-2.31-.66-.61-1.438-1.008-2.335-1.198-.897-.189-1.824-.143-2.783.138zm-10.047 1.098c-1.017-.02-1.936.18-2.757.602-.82.422-1.473 1.013-1.955 1.773s-.733 1.62-.753 2.582c-.02.961.195 1.831.646 2.61.45.78 1.078 1.398 1.88 1.853.803.455 1.713.693 2.73.714 1.017.021 1.939-.18 2.764-.601.826-.422 1.477-1.013 1.955-1.773s.727-1.621.746-2.582c.02-.962-.193-1.832-.639-2.611-.446-.78-1.073-1.397-1.88-1.852-.808-.456-1.72-.694-2.737-.715zm-.04 1.932c.579.012 1.098.156 1.56.431.46.276.82.654 1.075 1.135.257.482.378 1.026.366 1.632-.013.607-.157 1.145-.432 1.616-.276.47-.65.834-1.122 1.09-.472.256-.997.378-1.576.367-.578-.012-1.098-.156-1.56-.432-.46-.275-.82-.654-1.075-1.135-.256-.481-.378-1.025-.366-1.632.013-.606.157-1.145.433-1.615.275-.47.65-.834 1.121-1.09.472-.257.998-.379 1.576-.367zm-9.136-2.73l-2.409 9.5 2.199.557 2.408-9.5-2.198-.557zm-4.16-1.826l-2.697 5.304-1.659-7.518-1.66-.844-4.44 8.736 1.996 1.015 2.696-5.304 1.647 7.512 1.672.85 4.441-8.736-1.997-1.015zM19.077 68.95l-2.08 1.725-1.26-1.52c-.554-.668-1.145-1.157-1.772-1.468-.627-.31-1.258-.427-1.891-.35-.634.076-1.227.344-1.78.802-.56.465-.936 1-1.125 1.605-.189.606-.19 1.247-.006 1.924.186.677.555 1.35 1.11 2.017l2.707 3.266 7.544-6.255-1.447-1.746zm-4.683 1.482l1.18 1.422-2.62 2.172-1.179-1.423c-.434-.525-.652-1.017-.652-1.478 0-.46.212-.867.636-1.218.417-.346.851-.476 1.304-.39.453.085.897.39 1.331.915zm-1.01-9.862l-2.508 1.08-.826-1.915 1.76-2.816-.965-2.237-2.023 3.265c-.512-.48-1.08-.777-1.702-.89-.623-.112-1.269-.024-1.937.264-.669.288-1.179.696-1.53 1.224-.352.527-.535 1.142-.547 1.844-.013.701.153 1.45.496 2.248l1.68 3.895 8.999-3.88-.898-2.082zm-4.898.099l.732 1.697-3.137 1.352-.732-1.697c-.27-.626-.34-1.16-.21-1.602.13-.442.447-.772.953-.99.497-.214.953-.217 1.368-.01.414.207.756.624 1.026 1.25zm1.787-12.267c-.1-1.012-.408-1.9-.924-2.666-.516-.765-1.18-1.342-1.992-1.731-.812-.39-1.696-.537-2.653-.443-.957.094-1.795.411-2.516.951-.72.54-1.26 1.235-1.616 2.087-.357.85-.486 1.782-.387 2.795.1 1.012.408 1.903.925 2.673.516.77 1.18 1.347 1.992 1.731.811.385 1.695.53 2.652.436.957-.094 1.796-.409 2.517-.944.72-.535 1.26-1.23 1.616-2.086.357-.856.485-1.79.386-2.803zm-1.923.19c.057.576-.025 1.109-.244 1.6-.219.49-.552.89-1 1.202-.447.311-.973.497-1.577.556-.604.06-1.155-.02-1.655-.238s-.905-.547-1.215-.985c-.31-.438-.494-.945-.55-1.521-.058-.576.024-1.11.243-1.6s.552-.891 1-1.203c.447-.31.973-.496 1.577-.556.604-.059 1.155.02 1.655.238.5.219.905.547 1.215.985.31.439.494.946.551 1.522zm1.84-8.89c.194-1.142.045-2.057-.448-2.747s-1.333-1.136-2.52-1.339L.958 34.55 0 40.166l1.794.306.58-3.395 4.595.783c1.067.182 1.523.729 1.368 1.64-.115.671-.571 1.209-1.369 1.612l1.279 1.497c.51-.273.934-.662 1.271-1.168.337-.506.562-1.086.673-1.739zm4.062-12.59l-1.672-.72-2.107 4.9-2.084-.896 1.798-4.18-1.62-.697L6.77 29.7l-1.955-.84 2.036-4.734-1.672-.719-2.927 6.803 9.003 3.873 2.998-6.97zm4.05-5.023c.533-.661.9-1.354 1.102-2.079.202-.725.227-1.448.078-2.169l-1.96.29c.186 1.001-.029 1.884-.644 2.646-.381.472-.825.81-1.33 1.013-.507.204-1.029.26-1.566.167-.537-.092-1.042-.328-1.514-.71-.472-.38-.81-.824-1.013-1.33-.204-.506-.26-1.028-.167-1.565.092-.538.328-1.042.71-1.514.615-.763 1.429-1.162 2.44-1.197l-.131-1.977c-.729.012-1.425.19-2.088.537-.663.346-1.262.85-1.795 1.51-.633.785-1.035 1.627-1.204 2.528-.17.9-.1 1.773.21 2.616.308.843.84 1.57 1.596 2.18.755.609 1.577.976 2.466 1.1.89.124 1.757.008 2.602-.347.845-.356 1.58-.922 2.208-1.7zm7.026-6.73l-4.688-6.422 2.533-1.85-1.09-1.492-6.897 5.035 1.09 1.493 2.532-1.85 4.688 6.424 1.832-1.337z" transform="translate(-200 -640) translate(200 600) translate(0 40) translate(18.55 19)"/>
                        <path fill="#FFF" d="M41.45 0c2.21 0 4 1.79 4 4s-1.79 4-4 4-4-1.79-4-4 1.79-4 4-4z" transform="translate(-200 -640) translate(200 600) translate(0 40) translate(18.55 19)"/>
                        <g fill-rule="nonzero">
                            <path fill="#090D14" d="M13.992 36.692c.359 0 .648.29.648.648 0 .358-.29.65-.648.65-.356 0-.646-.292-.646-.65 0-.358.29-.648.646-.648zm3.337-2.417c.625 0 1.132.508 1.132 1.133 0 .627-.507 1.135-1.132 1.135-.625 0-1.13-.508-1.13-1.134 0-.627.506-1.134 1.13-1.134zm-6.672.486c.356 0 .646.29.646.648 0 .358-.29.648-.646.648-.358 0-.648-.29-.648-.648 0-.358.29-.648.648-.648zm10.009-1.932c.358 0 .647.29.647.648 0 .359-.29.65-.647.65-.358 0-.647-.291-.647-.65 0-.358.29-.648.647-.648zm-13.346 0c.357 0 .647.29.647.648 0 .359-.29.65-.647.65-.357 0-.647-.291-.647-.65 0-.358.29-.648.647-.648zm6.672 0c.359 0 .648.29.648.648 0 .359-.29.65-.648.65-.356 0-.646-.291-.646-.65 0-.358.29-.648.646-.648zm10.01-2.416c.626 0 1.132.507 1.132 1.134 0 .626-.506 1.134-1.131 1.134s-1.131-.508-1.131-1.133c0-.628.506-1.135 1.13-1.135zm-13.345 0c.625 0 1.13.507 1.13 1.134 0 .626-.505 1.134-1.13 1.134-.625 0-1.132-.508-1.132-1.133 0-.628.507-1.135 1.132-1.135zm6.672.485c.358 0 .648.29.648.649 0 .358-.29.648-.648.648-.357 0-.646-.29-.646-.648 0-.359.289-.649.646-.649zm-13.346 0c.358 0 .647.29.647.649 0 .358-.29.648-.647.648-.357 0-.647-.29-.647-.648 0-.359.29-.649.647-.649zm16.684-1.931c.356 0 .646.29.646.649 0 .358-.29.648-.647.648-.358 0-.647-.29-.647-.648 0-.358.29-.65.647-.65zm6.672 0c.357 0 .648.29.648.649 0 .358-.291.648-.648.648-.357 0-.647-.29-.647-.648 0-.358.29-.65.647-.65zm-20.019 0c.357 0 .647.29.647.649 0 .358-.29.648-.647.648-.357 0-.647-.29-.647-.648 0-.358.29-.65.647-.65zm6.672 0c.359 0 .648.29.648.649 0 .358-.29.648-.648.648-.356 0-.646-.29-.646-.648 0-.358.29-.65.646-.65zm3.337-2.417c.625 0 1.132.508 1.132 1.135 0 .625-.507 1.133-1.132 1.133-.625 0-1.13-.508-1.13-1.133 0-.627.506-1.135 1.13-1.135zm13.347 0c.625 0 1.132.508 1.132 1.135 0 .625-.507 1.133-1.132 1.133-.625 0-1.132-.508-1.132-1.133 0-.627.507-1.135 1.132-1.135zm-26.692 0c.624 0 1.13.508 1.13 1.135 0 .625-.506 1.133-1.13 1.133-.626 0-1.132-.508-1.132-1.133 0-.627.506-1.135 1.131-1.135h.001zm20.019.486c.357 0 .646.29.646.649 0 .358-.289.648-.646.648-.358 0-.648-.29-.648-.648 0-.358.29-.65.648-.65zm-13.346 0c.356 0 .646.29.646.649 0 .358-.29.648-.646.648-.358 0-.648-.29-.648-.648 0-.358.29-.65.648-.65zm16.682-1.931c.357 0 .648.29.648.648 0 .359-.291.65-.648.65-.357 0-.647-.291-.647-.65 0-.358.29-.648.647-.648zm-20.019 0c.357 0 .647.29.647.648 0 .359-.29.65-.647.65-.357 0-.647-.291-.647-.65 0-.358.29-.648.647-.648zm13.346 0c.358 0 .647.29.647.648 0 .359-.29.65-.647.65-.358 0-.647-.291-.647-.65 0-.358.29-.648.647-.648zm3.337-2.417c.625 0 1.131.508 1.131 1.135 0 .625-.506 1.133-1.131 1.133s-1.131-.508-1.131-1.133c0-.627.506-1.135 1.13-1.135zm-13.346 0c.625 0 1.13.508 1.13 1.135 0 .625-.505 1.133-1.13 1.133-.625 0-1.132-.508-1.132-1.133 0-.627.507-1.135 1.132-1.135zm-6.674.485c.358 0 .647.291.647.65 0 .358-.29.648-.647.648-.357 0-.647-.29-.647-.648 0-.359.29-.65.647-.65zm26.692 0c.358 0 .648.291.648.65 0 .358-.29.648-.647.648-.358 0-.648-.29-.648-.648 0-.359.29-.65.648-.65h-.001zm-23.354-1.93c.357 0 .647.29.647.649 0 .358-.29.647-.647.647-.358 0-.648-.29-.648-.647 0-.359.29-.65.648-.65zm20.019 0c.357 0 .648.29.648.649 0 .358-.291.647-.648.647-.357 0-.648-.29-.648-.647 0-.359.29-.65.648-.65zM3.984 18.825c.625 0 1.131.508 1.131 1.133 0 .628-.506 1.135-1.13 1.135-.626 0-1.132-.508-1.132-1.135 0-.625.506-1.133 1.131-1.133zm26.692 0c.625 0 1.132.508 1.132 1.133 0 .628-.506 1.135-1.131 1.135s-1.132-.508-1.132-1.135c0-.625.507-1.133 1.132-1.133h-.001zm-6.673.486c.358 0 .647.29.647.647 0 .36-.29.65-.647.65-.357 0-.647-.29-.647-.65 0-.357.29-.647.647-.647zm-13.345 0c.356 0 .646.29.646.647 0 .36-.29.65-.646.65-.358 0-.648-.29-.648-.65 0-.357.29-.647.648-.647zm10.009-1.932c.358 0 .647.29.647.648 0 .359-.29.65-.647.65-.358 0-.647-.29-.647-.65 0-.358.29-.648.647-.648zm6.673 0c.357 0 .648.29.648.648 0 .359-.291.65-.648.65-.357 0-.648-.29-.648-.65 0-.358.29-.648.648-.648zm-20.02 0c.358 0 .647.29.647.648 0 .359-.289.65-.646.65-.358 0-.648-.29-.648-.65 0-.358.29-.648.648-.648zm3.338-2.417c.625 0 1.13.509 1.13 1.134 0 .627-.505 1.135-1.13 1.135-.625 0-1.132-.508-1.132-1.134 0-.626.507-1.134 1.132-1.134zm13.345 0c.625 0 1.132.509 1.132 1.134 0 .627-.507 1.135-1.132 1.135-.625 0-1.13-.508-1.13-1.134 0-.626.505-1.134 1.13-1.134zm6.674.486c.357 0 .647.29.647.649 0 .358-.29.649-.647.649-.358 0-.648-.291-.648-.65 0-.358.29-.648.648-.648zm-26.692 0c.357 0 .646.29.646.649 0 .358-.29.649-.647.649-.357 0-.647-.291-.647-.65 0-.358.29-.648.647-.648h.001zm13.345 0c.358 0 .648.29.648.649 0 .358-.29.649-.648.649-.357 0-.647-.291-.647-.65 0-.358.29-.648.647-.648zM7.32 13.517c.357 0 .647.29.647.649 0 .358-.29.648-.647.648-.357 0-.647-.29-.647-.648 0-.359.29-.65.647-.65zm13.346 0c.358 0 .647.29.647.649 0 .358-.29.648-.647.648-.358 0-.647-.29-.647-.648 0-.359.29-.65.647-.65zm6.673 0c.357 0 .648.29.648.649 0 .358-.291.648-.648.648-.357 0-.647-.29-.647-.648 0-.359.29-.65.647-.65zM3.983 11.1c.625 0 1.131.508 1.131 1.134 0 .628-.506 1.135-1.13 1.135-.626 0-1.132-.508-1.132-1.135 0-.626.506-1.133 1.131-1.133V11.1zm13.346 0c.625 0 1.132.508 1.132 1.134 0 .628-.507 1.135-1.132 1.135-.625 0-1.13-.508-1.13-1.135 0-.626.506-1.133 1.13-1.133V11.1zm-6.672.486c.356 0 .646.29.646.648 0 .358-.29.65-.646.65-.358 0-.648-.292-.648-.65 0-.358.29-.648.648-.648zm13.346 0c.357 0 .646.29.646.648 0 .358-.289.65-.646.65-.358 0-.648-.292-.648-.65 0-.358.29-.648.648-.648zM7.32 9.656c.357 0 .647.29.647.648 0 .358-.29.649-.647.649-.357 0-.647-.29-.647-.649 0-.358.29-.648.647-.648zm13.346 0c.358 0 .647.29.647.648 0 .358-.29.649-.647.649-.358 0-.647-.29-.647-.649 0-.358.29-.648.647-.648zm-10.01-2.417c.626 0 1.131.508 1.131 1.134 0 .627-.505 1.135-1.13 1.135-.625 0-1.132-.508-1.132-1.135 0-.626.507-1.134 1.132-1.134zm-6.673.486c.358 0 .647.29.647.648 0 .359-.29.649-.647.649-.357 0-.647-.29-.647-.649 0-.358.29-.648.647-.648zm13.346 0c.358 0 .648.29.648.648 0 .359-.29.649-.648.649-.357 0-.646-.29-.646-.649 0-.358.289-.648.646-.648zM7.32 5.793c.357 0 .647.291.647.65 0 .358-.29.648-.647.648-.357 0-.647-.29-.647-.649 0-.358.29-.65.647-.65v.001zm3.337-1.93c.356 0 .646.29.646.648 0 .358-.29.648-.646.648-.358 0-.648-.29-.648-.648 0-.359.29-.649.648-.649z" transform="translate(-200 -640) translate(200 600) translate(0 40) translate(18.55 19) translate(28.45 25)"/>
                            <path fill="#FFF" d="M17.33 38.623c.358 0 .647.29.647.648 0 .358-.29.649-.648.649-.357 0-.646-.29-.646-.65 0-.358.289-.648.646-.648zm3.337-1.931c.358 0 .647.29.647.648 0 .358-.29.65-.647.65-.358 0-.647-.292-.647-.65 0-.358.29-.648.647-.648zm3.336-1.931c.358 0 .647.29.647.648 0 .358-.29.648-.647.648-.357 0-.647-.29-.647-.648 0-.358.29-.648.647-.648zm3.337-1.932c.357 0 .648.29.648.648 0 .359-.291.65-.648.65-.357 0-.648-.291-.648-.65 0-.358.29-.648.648-.648zm3.337-1.93c.357 0 .647.29.647.648 0 .358-.29.648-.647.648-.358 0-.648-.29-.648-.648 0-.359.29-.649.648-.649zM.647 28.966c.358 0 .647.29.647.649 0 .358-.29.648-.647.648-.358 0-.647-.29-.647-.648 0-.358.29-.65.647-.65zm33.365 0c.358 0 .647.29.647.649 0 .358-.289.648-.646.648-.359 0-.647-.29-.647-.648 0-.358.289-.65.647-.65zm0-3.862c.358 0 .647.29.647.648 0 .359-.289.65-.646.65-.359 0-.647-.291-.647-.65 0-.358.289-.648.647-.648zm-33.365 0c.358 0 .647.29.647.648 0 .359-.29.65-.647.65-.358 0-.647-.291-.647-.65 0-.358.29-.648.647-.648zm13.345 0c.359 0 .648.29.648.648 0 .359-.29.65-.648.65-.356 0-.646-.291-.646-.65 0-.358.29-.648.646-.648zm3.337-1.932c.358 0 .648.291.648.65 0 .358-.29.648-.648.648-.357 0-.646-.29-.646-.648 0-.359.289-.65.646-.65zM.647 21.243c.358 0 .647.29.647.649 0 .358-.29.647-.647.647-.358 0-.647-.29-.647-.647 0-.359.29-.65.647-.65zm13.345 0c.359 0 .648.29.648.649 0 .358-.29.647-.648.647-.356 0-.646-.29-.646-.647 0-.359.29-.65.646-.65zm6.674 0c.358 0 .647.29.647.649 0 .358-.29.647-.647.647-.358 0-.647-.29-.647-.647 0-.359.29-.65.647-.65zm13.347 0c.357 0 .646.29.646.649 0 .358-.289.647-.646.647-.359 0-.647-.29-.647-.647 0-.359.289-.65.647-.65zm-16.684-1.931c.358 0 .648.29.648.647 0 .36-.29.65-.648.65-.357 0-.646-.29-.646-.65 0-.357.289-.647.646-.647zM.647 17.38c.358 0 .647.29.647.648 0 .359-.29.65-.647.65-.358 0-.647-.29-.647-.65 0-.358.29-.648.647-.648zm13.345 0c.359 0 .648.29.648.648 0 .359-.29.65-.648.65-.356 0-.646-.29-.646-.65 0-.358.29-.648.646-.648zm20.02 0c.358 0 .647.29.647.648 0 .359-.289.65-.646.65-.359 0-.647-.29-.647-.65 0-.358.289-.648.647-.648zm-20.02-3.862c.358 0 .647.29.647.649 0 .358-.29.648-.647.648-.357 0-.647-.29-.647-.648 0-.359.29-.65.647-.65zm20.02 0c.357 0 .646.29.646.649 0 .358-.289.648-.646.648-.359 0-.647-.29-.647-.648 0-.359.29-.65.647-.65zm-33.366 0c.358 0 .647.29.647.649 0 .358-.29.648-.647.648-.357 0-.646-.29-.646-.648 0-.359.29-.65.647-.65H.646zm30.029-1.931c.357 0 .648.29.648.648 0 .358-.29.65-.648.65-.358 0-.648-.292-.648-.65 0-.358.29-.648.648-.648zM.647 9.656c.358 0 .647.29.647.648 0 .358-.29.649-.647.649-.358 0-.647-.29-.647-.649 0-.358.29-.648.647-.648zm13.345 0c.359 0 .648.29.648.648 0 .358-.29.649-.648.649-.356 0-.646-.29-.646-.649 0-.358.29-.648.646-.648zm13.347 0c.357 0 .648.29.648.648 0 .358-.291.649-.648.649-.357 0-.647-.29-.647-.649 0-.358.29-.648.647-.648zm6.674 0c.357 0 .646.29.646.648 0 .358-.289.649-.646.649-.359 0-.647-.29-.647-.649 0-.358.289-.648.647-.648zm-10.01-1.931c.357 0 .646.29.646.648 0 .359-.289.649-.646.649-.358 0-.648-.29-.648-.649 0-.358.29-.648.648-.648zm6.673 0c.357 0 .647.29.647.648 0 .359-.29.649-.647.649-.358 0-.648-.29-.648-.649 0-.358.29-.648.648-.648zM13.992 5.793c.358 0 .647.291.647.65 0 .358-.29.648-.647.648-.357 0-.647-.29-.647-.649 0-.358.29-.65.647-.65v.001zm6.673 0c.358 0 .648.291.648.65 0 .358-.29.648-.648.648-.357 0-.647-.29-.647-.649 0-.358.29-.65.647-.65v.001zm6.673 0c.357 0 .648.291.648.65 0 .358-.291.648-.648.648-.357 0-.647-.29-.647-.649 0-.358.29-.65.647-.65v.001zM17.33 3.863c.358 0 .648.29.648.648 0 .358-.29.648-.648.648-.357 0-.646-.29-.646-.648 0-.359.289-.649.646-.649zm6.674 0c.357 0 .646.29.646.648 0 .358-.289.648-.646.648-.358 0-.648-.29-.648-.648 0-.359.29-.649.648-.649zM13.993 1.93c.358 0 .647.29.647.649 0 .358-.29.648-.648.648-.356 0-.646-.29-.646-.648 0-.358.29-.65.646-.65zm6.673 0c.358 0 .647.29.647.649 0 .358-.29.648-.647.648-.358 0-.647-.29-.647-.648 0-.358.29-.65.647-.65zM17.329 0c.358 0 .648.29.648.65 0 .358-.29.648-.648.648-.357 0-.646-.291-.646-.649 0-.358.289-.649.646-.649z" transform="translate(-200 -640) translate(200 600) translate(0 40) translate(18.55 19) translate(28.45 25)"/>
                        </g>
                    </g>
                </g>
            </g>
        </g>
    </g>
</svg>
