<svg width="20" height="20" viewBox="0 0 20 20" fill="none" xmlns="http://www.w3.org/2000/svg">
<path fill-rule="evenodd" clip-rule="evenodd" d="M19.9956 10.0005V9.97756L19.9951 9.95512C19.9698 4.46049 15.4954 0 9.99753 0C4.48532 0 0 4.48585 0 10C0 15.5137 4.48532 20 9.99803 20C12.5276 20 14.9418 19.0527 16.7951 17.3332C17.1635 16.9917 17.1852 16.4166 16.8436 16.0488C16.7632 15.9614 16.6659 15.8907 16.5574 15.8409C16.4489 15.7911 16.3314 15.763 16.2118 15.7585C16.0922 15.754 15.9729 15.773 15.8608 15.8144C15.7488 15.8559 15.6463 15.919 15.5593 16C14.0571 17.4015 12.0668 18.1823 9.99803 18.182C7.58282 18.182 5.40972 17.1288 3.91098 15.4585L8.18043 8.70439V11.818C8.18043 13.3137 8.76913 13.7971 9.26277 13.9385C9.7569 14.08 10.512 13.9834 11.3047 12.7151L13.653 8.96439C13.7283 8.84342 13.7976 8.73902 13.861 8.64878V10.5454C13.861 11.9434 14.4294 13.0615 15.4201 13.6122C16.3133 14.1088 17.4363 14.0639 18.3513 13.4951C19.4603 12.8049 20.0579 11.5332 19.9956 10.0005ZM16.3029 12.0229C16.6198 12.199 17.0367 12.1717 17.3907 11.9512C17.9349 11.6127 18.222 10.918 18.1794 10.0444C18.1792 10.04 18.1795 10.0358 18.1799 10.0317C18.1802 10.0285 18.1804 10.0253 18.1804 10.022C18.1799 10.0146 18.178 10.0078 18.178 10C18.178 5.48829 14.5086 1.81805 9.99803 1.81805C5.48745 1.81805 1.8176 5.48829 1.8176 10C1.81589 11.3399 2.1463 12.6599 2.78012 13.8454L7.51449 6.35561C8.08586 5.49415 8.67407 5.44878 9.0672 5.56195C9.66134 5.73317 9.97426 6.30098 9.99803 7.25024V11.3761L12.1112 8.00049L12.1117 7.99973C12.4507 7.4567 13.3516 6.01382 14.5492 6.35756C15.2562 6.56 15.6791 7.30976 15.6791 8.36342V10.5454C15.6791 11.2746 15.9004 11.799 16.3029 12.0229Z" fill="#E0E0FF"/>
</svg>
