<svg width="24" height="24" viewBox="0 0 24 24" fill="none" xmlns="http://www.w3.org/2000/svg">
<path d="M20.8658 8.63491C20.7297 8.16646 20.4834 7.73917 20.1484 7.39035C18.6527 5.68944 17.2789 5.04641 15.0049 6.12504H14.8898C14.4686 6.14212 14.0642 6.29824 13.7372 6.57C13.4101 6.84176 13.1782 7.21451 13.0761 7.63235C12.2368 10.1007 11.3367 12.5415 10.4569 14.9891C10.3283 15.1689 10.1997 15.3487 10.0644 15.5215C8.45364 16.7315 6.89705 17.8585 4.65013 16.9044C3.83123 16.5656 2.49797 16.6693 3.19505 18.3771C3.23125 18.6058 3.35247 18.8114 3.53344 18.951C3.74734 19.1818 3.99648 19.3756 4.27114 19.5249C7.40463 21.5991 10.8359 22.0555 14.1454 20.4237C17.9015 18.5776 20.6357 15.6598 20.9132 11.0826C21.0431 10.2705 21.0271 9.44107 20.8658 8.63491Z" fill="#E0E0FF"/>
<path d="M19.5259 6.22179C19.5455 5.58358 19.6134 4.94789 19.7289 4.32036C19.9184 2.67477 19.0521 1.9626 18.3753 1.92112C18.0518 1.90166 17.7279 1.95331 17.4255 2.07258C17.1231 2.19186 16.8493 2.37598 16.6225 2.61254C16.5028 2.71954 16.4272 2.86885 16.4109 3.03047C16.3945 3.19209 16.4387 3.35403 16.5345 3.48374C16.8526 3.82254 17.1301 3.81562 17.3128 3.11037C17.6173 1.96952 18.9168 3.11037 18.8762 3.69117C18.8085 4.85276 17.9896 5.28836 17.2722 5.76544C16.4574 6.20041 15.5938 6.53243 14.7004 6.75418C14.6543 6.77507 14.6127 6.80517 14.5781 6.8427C14.5435 6.88023 14.5166 6.92445 14.4989 6.97275C14.4813 7.02105 14.4732 7.07247 14.4753 7.12399C14.4774 7.17551 14.4895 7.22608 14.5109 7.27275C14.5433 7.34378 14.595 7.40379 14.6598 7.44561C14.9585 7.48706 15.2613 7.48706 15.5599 7.44561C16.5142 7.28658 16.8052 7.57698 17.103 8.53806C17.6774 8.24909 18.3277 8.15695 18.9574 8.27532C19.5868 8.51041 19.5935 8.90452 19.8101 9.18109C19.8784 9.20338 19.9524 9.19783 20.0167 9.16561C20.0811 9.13339 20.1307 9.077 20.1553 9.00823C20.1586 8.97374 20.1586 8.93901 20.1553 8.90452C19.7005 8.08941 19.4822 7.15893 19.5259 6.22179Z" fill="#B6B6E8"/>
</svg>
