<svg width="18" height="18" viewBox="0 0 18 18" fill="none" xmlns="http://www.w3.org/2000/svg">
<path d="M2.03805 11.0213L4.05661 9L2.0373 6.96075L0 9L2.03805 11.0213Z" fill="#E0E0FF"/>
<path d="M12.4681 7.5405L8.99138 4.0605L5.51472 7.5585L3.47667 5.52L8.99138 0L14.5061 5.502L12.4681 7.5405Z" fill="#E0E0FF"/>
<path d="M13.9262 9L15.9455 6.96075L18 9L15.9635 11.0393L13.9262 9Z" fill="#E0E0FF"/>
<path d="M5.51472 10.4415L8.99138 13.9395L12.4681 10.4415L14.5061 12.48L8.99138 18L3.47667 12.4808L5.51472 10.4415Z" fill="#E0E0FF"/>
<path d="M11.0287 8.982L8.99138 11.022V11.0213L6.95409 9L8.99138 6.9615L11.0287 8.982Z" fill="#E0E0FF"/>
</svg>
