<svg xmlns="http://www.w3.org/2000/svg" xmlns:xlink="http://www.w3.org/1999/xlink" width="120" height="121" viewBox="0 0 120 121">
    <defs>
        <radialGradient id="m4zrq85rnb" cx="20.497%" cy="11.791%" r="91.783%" fx="20.497%" fy="11.791%" gradientTransform="scale(1 .98706) rotate(43.745 .203 .119)">
            <stop offset="0%" stop-color="#F5F7FA" stop-opacity=".24"/>
            <stop offset="100%" stop-color="#F5F7FA" stop-opacity="0"/>
        </radialGradient>
        <path id="l9yi060nfa" d="M0 0.456H120V120.456H0z"/>
    </defs>
    <g fill="none" fill-rule="evenodd">
        <g>
            <g>
                <g>
                    <g transform="translate(-806 -1077) translate(165 344) translate(605 460) translate(36 273)">
                        <mask id="72jqxaoh6c" fill="#fff">
                            <use xlink:href="#l9yi060nfa"/>
                        </mask>
                        <path fill="url(#m4zrq85rnb)" fill-rule="nonzero" d="M112.376 120.056l5.504-7.296c-9.856-6.656-17.792-14.592-23.936-23.808C102.008 73.336 106.36 53.88 107 30.84h8.704v-8.832H81.912c1.152-5.888 2.176-12.288 3.072-18.944L75.896 1.4c-2.688 23.296-7.808 41.728-15.232 55.424l5.76 7.168c2.048-3.456 4.096-7.296 6.144-11.52 1.664 13.696 5.504 25.984 11.392 36.736-5.504 9.088-12.544 16.64-21.248 22.656l4.992 8.064c8.448-6.144 15.488-13.696 21.376-22.528 6.016 8.704 13.824 16.256 23.296 22.656zM5.88 119.8c11.392-3.328 21.248-7.424 29.696-12.032 7.296 3.072 14.72 6.784 22.144 10.88l4.992-6.528c-6.656-3.584-13.056-6.656-19.456-9.216 6.912-4.864 12.288-10.496 16.128-16.768v-5.888H30.968c1.152-2.176 2.432-4.48 3.84-7.04h24.064V52.344H36.6v-6.656h20.48V31.352h5.76v-7.68h-5.76V9.336H36.6v-7.04h-8.448v7.04H7.8v14.336H2.168v7.68H7.8v14.336h20.352v6.656H6.008v20.864h19.968c-1.28 2.304-2.688 4.608-3.968 7.04H1.272v7.168h16.384c-2.304 3.712-4.736 7.424-7.296 11.264 5.248 1.536 10.624 3.328 16 5.376-7.168 3.456-15.744 6.528-25.6 9.088l5.12 6.656zm43.264-95.36H36.6v-8.448h12.544v8.448zm-20.992 0H15.736v-8.448h12.416v8.448zm20.992 14.72H36.6v-8.576h12.544v8.576zm-20.992 0H15.736v-8.576h12.416v8.576zm60.544 40.704c-4.352-8.96-7.168-19.072-8.448-30.336l-7.424 2.304c2.688-6.272 4.992-13.312 7.04-20.992h18.688c-.512 19.072-3.84 35.456-9.856 49.024zm-37.76-13.056H36.6v-8.192h14.336v8.192zm-22.784 0H13.944v-8.192h14.208v8.192zm6.656 32.768c-4.352-1.792-8.704-3.2-12.928-4.352 1.536-2.304 3.072-4.992 4.864-7.808h22.528c-3.584 4.352-8.448 8.448-14.464 12.16z" mask="url(#72jqxaoh6c)"/>
                    </g>
                </g>
            </g>
        </g>
    </g>
</svg>
